<svg width="945" height="676" viewBox="0 0 945 676" fill="none" xmlns="http://www.w3.org/2000/svg">
<rect x="232" y="226" width="713" height="450" rx="20" fill="#2A2C2B"/>
<path d="M626.753 418.898C624.717 418.898 622.918 418.547 621.355 417.847C619.802 417.146 618.585 416.18 617.705 414.949C616.824 413.718 616.388 412.316 616.398 410.744C616.388 409.513 616.639 408.382 617.151 407.349C617.671 406.308 618.377 405.441 619.267 404.75C620.157 404.049 621.152 403.604 622.25 403.415V403.244C620.801 402.894 619.641 402.117 618.77 400.915C617.899 399.712 617.468 398.33 617.477 396.767C617.468 395.28 617.861 393.955 618.656 392.79C619.461 391.616 620.564 390.692 621.966 390.02C623.367 389.348 624.963 389.011 626.753 389.011C628.524 389.011 630.105 389.352 631.497 390.034C632.899 390.706 634.002 391.63 634.807 392.804C635.612 393.969 636.019 395.29 636.028 396.767C636.019 398.33 635.574 399.712 634.693 400.915C633.813 402.117 632.667 402.894 631.256 403.244V403.415C632.345 403.604 633.325 404.049 634.196 404.75C635.077 405.441 635.777 406.308 636.298 407.349C636.829 408.382 637.098 409.513 637.108 410.744C637.098 412.316 636.653 413.718 635.773 414.949C634.892 416.18 633.67 417.146 632.108 417.847C630.555 418.547 628.77 418.898 626.753 418.898ZM626.753 415.304C627.955 415.304 628.997 415.105 629.878 414.707C630.759 414.3 631.44 413.737 631.923 413.017C632.406 412.288 632.652 411.436 632.662 410.46C632.652 409.447 632.387 408.552 631.866 407.776C631.355 406.999 630.659 406.388 629.778 405.943C628.898 405.498 627.889 405.276 626.753 405.276C625.607 405.276 624.589 405.498 623.699 405.943C622.809 406.388 622.108 406.999 621.597 407.776C621.085 408.552 620.834 409.447 620.844 410.46C620.834 411.436 621.066 412.288 621.54 413.017C622.023 413.737 622.709 414.3 623.599 414.707C624.49 415.105 625.541 415.304 626.753 415.304ZM626.753 401.767C627.719 401.767 628.576 401.573 629.324 401.185C630.072 400.796 630.659 400.257 631.085 399.565C631.521 398.874 631.743 398.064 631.753 397.136C631.743 396.227 631.526 395.432 631.099 394.75C630.683 394.068 630.1 393.543 629.352 393.173C628.604 392.795 627.738 392.605 626.753 392.605C625.749 392.605 624.868 392.795 624.111 393.173C623.363 393.543 622.78 394.068 622.364 394.75C621.947 395.432 621.743 396.227 621.753 397.136C621.743 398.064 621.952 398.874 622.378 399.565C622.804 400.257 623.391 400.796 624.139 401.185C624.897 401.573 625.768 401.767 626.753 401.767ZM644.192 418.77C643.416 418.77 642.748 418.495 642.19 417.946C641.631 417.387 641.352 416.715 641.352 415.929C641.352 415.152 641.631 414.49 642.19 413.94C642.748 413.382 643.416 413.102 644.192 413.102C644.969 413.102 645.637 413.382 646.195 413.94C646.754 414.49 647.033 415.152 647.033 415.929C647.033 416.45 646.901 416.928 646.636 417.364C646.38 417.79 646.039 418.131 645.613 418.386C645.187 418.642 644.713 418.77 644.192 418.77ZM652.903 418.5L665.602 393.386V393.173H650.915V389.409H670.148V393.301L657.491 418.5H652.903ZM672.133 412.818V409.267L684.704 389.409H687.502V394.636H685.727L676.735 408.869V409.097H693.965V412.818H672.133ZM685.925 418.5V411.739L685.954 410.119V389.409H690.116V418.5H685.925ZM709.072 418.898C707.774 418.879 706.496 418.642 705.237 418.188C703.987 417.733 702.85 416.975 701.827 415.915C700.805 414.854 699.986 413.429 699.37 411.639C698.764 409.849 698.461 407.615 698.461 404.935C698.461 402.397 698.712 400.143 699.214 398.173C699.725 396.204 700.459 394.542 701.415 393.188C702.372 391.824 703.527 390.787 704.881 390.077C706.236 389.366 707.755 389.011 709.441 389.011C711.174 389.011 712.713 389.352 714.058 390.034C715.402 390.716 716.491 391.658 717.325 392.861C718.167 394.063 718.702 395.432 718.93 396.966H714.597C714.304 395.754 713.721 394.764 712.85 393.997C711.979 393.23 710.843 392.847 709.441 392.847C707.31 392.847 705.648 393.775 704.455 395.631C703.272 397.487 702.675 400.067 702.665 403.372H702.879C703.38 402.548 703.996 401.848 704.725 401.27C705.464 400.683 706.288 400.233 707.197 399.92C708.115 399.598 709.081 399.438 710.094 399.438C711.78 399.438 713.305 399.849 714.668 400.673C716.041 401.488 717.135 402.615 717.95 404.054C718.764 405.493 719.171 407.141 719.171 408.997C719.171 410.853 718.75 412.534 717.907 414.04C717.074 415.545 715.899 416.739 714.384 417.619C712.869 418.491 711.098 418.917 709.072 418.898ZM709.058 415.205C710.175 415.205 711.174 414.93 712.055 414.381C712.935 413.831 713.631 413.093 714.143 412.165C714.654 411.237 714.91 410.2 714.91 409.054C714.91 407.937 714.659 406.919 714.157 406C713.665 405.081 712.983 404.352 712.112 403.812C711.25 403.273 710.265 403.003 709.157 403.003C708.314 403.003 707.533 403.164 706.813 403.486C706.103 403.808 705.478 404.253 704.938 404.821C704.398 405.389 703.972 406.043 703.66 406.781C703.357 407.51 703.205 408.282 703.205 409.097C703.205 410.186 703.456 411.194 703.958 412.122C704.469 413.05 705.165 413.798 706.046 414.366C706.936 414.925 707.94 415.205 709.058 415.205ZM743.908 422.136V385.773H746.238V422.136H743.908ZM751.195 397.051C751.044 395.706 750.419 394.665 749.32 393.926C748.222 393.178 746.839 392.804 745.173 392.804C743.979 392.804 742.947 392.993 742.076 393.372C741.205 393.741 740.528 394.253 740.045 394.906C739.571 395.55 739.335 396.284 739.335 397.108C739.335 397.799 739.496 398.396 739.817 398.898C740.149 399.4 740.58 399.821 741.11 400.162C741.65 400.493 742.228 400.773 742.843 401C743.459 401.218 744.05 401.398 744.619 401.54L747.46 402.278C748.388 402.506 749.339 402.813 750.315 403.202C751.29 403.59 752.194 404.101 753.028 404.736C753.861 405.37 754.533 406.156 755.045 407.094C755.566 408.031 755.826 409.153 755.826 410.46C755.826 412.108 755.4 413.571 754.548 414.849C753.705 416.128 752.478 417.136 750.869 417.875C749.268 418.614 747.332 418.983 745.059 418.983C742.881 418.983 740.996 418.637 739.406 417.946C737.815 417.255 736.569 416.275 735.67 415.006C734.77 413.727 734.273 412.212 734.178 410.46H738.582C738.667 411.511 739.008 412.387 739.604 413.088C740.21 413.779 740.982 414.295 741.92 414.636C742.867 414.968 743.904 415.134 745.031 415.134C746.271 415.134 747.374 414.939 748.34 414.551C749.316 414.153 750.083 413.604 750.641 412.903C751.2 412.193 751.479 411.365 751.479 410.418C751.479 409.556 751.233 408.85 750.741 408.301C750.258 407.752 749.6 407.297 748.766 406.938C747.942 406.578 747.01 406.26 745.968 405.986L742.531 405.048C740.201 404.414 738.354 403.481 736.991 402.25C735.637 401.019 734.96 399.39 734.96 397.364C734.96 395.687 735.414 394.224 736.323 392.974C737.232 391.724 738.463 390.754 740.016 390.062C741.569 389.362 743.321 389.011 745.272 389.011C747.242 389.011 748.979 389.357 750.485 390.048C752 390.74 753.193 391.691 754.065 392.903C754.936 394.106 755.39 395.489 755.428 397.051H751.195Z" fill="#F7F7F7"/>
<rect x="739" y="269" width="172" height="47" rx="10" fill="url(#paint0_linear_1_87)"/>
<path d="M785.468 289.642C785.417 289.726 785.363 289.789 785.307 289.831C785.251 289.868 785.181 289.887 785.097 289.887C785.008 289.887 784.908 289.85 784.796 289.775C784.689 289.7 784.553 289.619 784.39 289.53C784.231 289.437 784.042 289.353 783.823 289.278C783.604 289.199 783.342 289.159 783.039 289.159C782.759 289.159 782.512 289.194 782.297 289.264C782.087 289.334 781.91 289.432 781.765 289.558C781.62 289.684 781.511 289.833 781.436 290.006C781.366 290.174 781.331 290.358 781.331 290.559C781.331 290.816 781.399 291.03 781.534 291.203C781.669 291.371 781.847 291.516 782.066 291.637C782.29 291.758 782.544 291.866 782.829 291.959C783.114 292.048 783.403 292.143 783.697 292.246C783.996 292.349 784.287 292.465 784.572 292.596C784.857 292.727 785.109 292.892 785.328 293.093C785.552 293.294 785.732 293.539 785.867 293.828C786.002 294.117 786.07 294.47 786.07 294.885C786.07 295.333 785.993 295.753 785.839 296.145C785.685 296.537 785.461 296.88 785.167 297.174C784.878 297.463 784.518 297.692 784.089 297.86C783.664 298.028 783.179 298.112 782.633 298.112C782.311 298.112 781.996 298.079 781.688 298.014C781.385 297.953 781.093 297.867 780.813 297.755C780.538 297.638 780.279 297.498 780.036 297.335C779.793 297.172 779.576 296.99 779.385 296.789L779.861 296.005C779.903 295.94 779.957 295.888 780.022 295.851C780.087 295.814 780.16 295.795 780.239 295.795C780.346 295.795 780.465 295.846 780.596 295.949C780.727 296.047 780.883 296.157 781.065 296.278C781.252 296.395 781.476 296.504 781.737 296.607C781.998 296.705 782.311 296.754 782.675 296.754C783.268 296.754 783.725 296.609 784.047 296.32C784.374 296.031 784.537 295.632 784.537 295.123C784.537 294.838 784.469 294.607 784.334 294.43C784.199 294.248 784.019 294.096 783.795 293.975C783.576 293.854 783.324 293.751 783.039 293.667C782.754 293.583 782.465 293.494 782.171 293.401C781.877 293.303 781.588 293.191 781.303 293.065C781.018 292.934 780.764 292.766 780.54 292.561C780.321 292.351 780.143 292.094 780.008 291.791C779.873 291.483 779.805 291.1 779.805 290.643C779.805 290.279 779.875 289.927 780.015 289.586C780.16 289.245 780.367 288.944 780.638 288.683C780.913 288.417 781.252 288.205 781.653 288.046C782.054 287.887 782.512 287.808 783.025 287.808C783.604 287.808 784.133 287.899 784.614 288.081C785.099 288.263 785.517 288.522 785.867 288.858L785.468 289.642ZM795.533 296.677L795.526 298H789.24V287.92H795.526V289.243H790.885V292.281H794.595V293.562H790.885V296.677H795.533ZM801.842 293.058C802.206 293.058 802.526 293.011 802.801 292.918C803.081 292.825 803.312 292.694 803.494 292.526C803.681 292.353 803.821 292.146 803.914 291.903C804.007 291.66 804.054 291.39 804.054 291.091C804.054 290.797 804.007 290.533 803.914 290.3C803.825 290.067 803.69 289.868 803.508 289.705C803.326 289.542 803.095 289.418 802.815 289.334C802.54 289.245 802.215 289.201 801.842 289.201H800.344V293.058H801.842ZM801.842 287.92C802.5 287.92 803.069 287.997 803.55 288.151C804.035 288.305 804.434 288.522 804.747 288.802C805.064 289.077 805.3 289.411 805.454 289.803C805.608 290.19 805.685 290.62 805.685 291.091C805.685 291.572 805.603 292.013 805.44 292.414C805.277 292.811 805.034 293.154 804.712 293.443C804.39 293.728 803.989 293.952 803.508 294.115C803.032 294.274 802.477 294.353 801.842 294.353H800.344V298H798.706V287.92H801.842ZM815.588 289.285H812.445V298H810.814V289.285H807.664V287.92H815.588V289.285ZM824.684 296.677L824.677 298H818.391V287.92H824.677V289.243H820.036V292.281H823.746V293.562H820.036V296.677H824.684ZM838.581 287.92V298H837.139V291.091C837.139 290.979 837.141 290.858 837.146 290.727C837.155 290.592 837.167 290.456 837.181 290.321L833.94 296.306C833.814 296.553 833.62 296.677 833.359 296.677H833.128C832.862 296.677 832.668 296.553 832.547 296.306L829.257 290.307C829.271 290.442 829.28 290.578 829.285 290.713C829.294 290.848 829.299 290.974 829.299 291.091V298H827.857V287.92H829.082C829.227 287.92 829.339 287.934 829.418 287.962C829.497 287.985 829.57 288.062 829.635 288.193L832.869 294.052C832.939 294.187 833.004 294.327 833.065 294.472C833.13 294.612 833.189 294.757 833.24 294.906C833.296 294.757 833.354 294.61 833.415 294.465C833.48 294.316 833.548 294.173 833.618 294.038L836.803 288.193C836.868 288.062 836.941 287.985 837.02 287.962C837.099 287.934 837.211 287.92 837.356 287.92H838.581ZM846.036 296.705C846.405 296.705 846.715 296.663 846.967 296.579C847.224 296.49 847.432 296.371 847.59 296.222C847.754 296.073 847.87 295.898 847.94 295.697C848.015 295.492 848.052 295.272 848.052 295.039C848.052 294.563 847.889 294.19 847.562 293.919C847.24 293.644 846.729 293.506 846.029 293.506H844.006V296.705H846.036ZM844.006 289.201V292.351H845.644C846.344 292.351 846.867 292.216 847.212 291.945C847.558 291.674 847.73 291.285 847.73 290.776C847.73 290.221 847.567 289.819 847.24 289.572C846.918 289.325 846.412 289.201 845.721 289.201H844.006ZM845.721 287.92C846.365 287.92 846.916 287.983 847.373 288.109C847.831 288.23 848.206 288.405 848.5 288.634C848.794 288.863 849.009 289.143 849.144 289.474C849.284 289.801 849.354 290.169 849.354 290.58C849.354 290.818 849.317 291.049 849.242 291.273C849.172 291.492 849.06 291.7 848.906 291.896C848.757 292.087 848.568 292.26 848.339 292.414C848.111 292.568 847.84 292.696 847.527 292.799C848.955 293.102 849.669 293.861 849.669 295.074C849.669 295.503 849.588 295.898 849.424 296.257C849.266 296.612 849.032 296.92 848.724 297.181C848.421 297.438 848.045 297.638 847.597 297.783C847.149 297.928 846.638 298 846.064 298H842.368V287.92H845.721ZM859.208 296.677L859.201 298H852.915V287.92H859.201V289.243H854.56V292.281H858.27V293.562H854.56V296.677H859.208ZM865.307 292.75C865.681 292.75 866.007 292.706 866.287 292.617C866.567 292.524 866.801 292.395 866.987 292.232C867.174 292.069 867.314 291.875 867.407 291.651C867.501 291.422 867.547 291.17 867.547 290.895C867.547 290.344 867.365 289.924 867.001 289.635C866.637 289.346 866.087 289.201 865.349 289.201H864.019V292.75H865.307ZM870.053 298H868.59C868.301 298 868.091 297.888 867.96 297.664L865.608 294.269C865.529 294.152 865.443 294.068 865.349 294.017C865.256 293.966 865.116 293.94 864.929 293.94H864.019V298H862.381V287.92H865.349C866.012 287.92 866.581 287.988 867.057 288.123C867.538 288.258 867.932 288.452 868.24 288.704C868.548 288.951 868.775 289.25 868.919 289.6C869.069 289.95 869.143 290.34 869.143 290.769C869.143 291.119 869.09 291.446 868.982 291.749C868.88 292.052 868.728 292.328 868.527 292.575C868.331 292.822 868.089 293.037 867.799 293.219C867.51 293.401 867.181 293.543 866.812 293.646C867.013 293.767 867.186 293.938 867.33 294.157L870.053 298Z" fill="#111111"/>
<path d="M269 558L361.168 608.139C380.388 618.595 404.28 614.405 418.796 598.033L453.07 559.375C468.538 541.928 494.458 538.459 513.97 551.225L533.528 564.021C555.691 578.521 585.451 571.855 599.31 549.288L644.2 476.195C658.056 453.634 687.804 446.965 709.966 461.451L746.843 485.556C762.18 495.581 781.946 495.779 797.481 486.063L909.5 416" stroke="url(#paint1_linear_1_87)" stroke-width="6"/>
<g filter="url(#filter0_d_1_87)">
<circle cx="678.5" cy="456" r="15.5" fill="#1B1B1B"/>
<circle cx="678.5" cy="456" r="14.5" stroke="#71D0C9" stroke-width="2"/>
</g>
<g filter="url(#filter1_d_1_87)">
<rect x="143" y="144" width="451" height="164" rx="20" fill="#3B3D3C"/>
</g>
<path d="M335.701 215.378C333.848 215.378 332.192 215.058 330.735 214.42C329.286 213.781 328.139 212.895 327.294 211.761C326.457 210.619 326.007 209.296 325.944 207.794H330.182C330.236 208.613 330.51 209.323 331.005 209.926C331.508 210.52 332.165 210.979 332.975 211.303C333.785 211.626 334.684 211.788 335.674 211.788C336.762 211.788 337.725 211.599 338.562 211.222C339.407 210.844 340.068 210.317 340.545 209.643C341.022 208.959 341.26 208.172 341.26 207.281C341.26 206.355 341.022 205.54 340.545 204.839C340.077 204.128 339.389 203.57 338.481 203.165C337.581 202.761 336.492 202.558 335.215 202.558H332.88V199.158H335.215C336.241 199.158 337.14 198.973 337.914 198.604C338.696 198.236 339.308 197.723 339.749 197.066C340.19 196.4 340.41 195.622 340.41 194.732C340.41 193.877 340.217 193.135 339.83 192.505C339.452 191.866 338.912 191.367 338.211 191.007C337.518 190.647 336.699 190.467 335.755 190.467C334.855 190.467 334.014 190.634 333.231 190.967C332.458 191.29 331.828 191.758 331.342 192.37C330.856 192.973 330.595 193.697 330.559 194.543H326.525C326.57 193.049 327.01 191.736 327.847 190.602C328.693 189.469 329.808 188.583 331.194 187.944C332.579 187.305 334.117 186.986 335.809 186.986C337.581 186.986 339.11 187.332 340.397 188.025C341.692 188.709 342.691 189.622 343.392 190.764C344.103 191.907 344.454 193.157 344.445 194.516C344.454 196.063 344.022 197.376 343.15 198.456C342.286 199.536 341.134 200.26 339.695 200.629V200.844C341.53 201.123 342.952 201.852 343.959 203.031C344.976 204.209 345.48 205.671 345.471 207.416C345.48 208.937 345.057 210.299 344.202 211.505C343.357 212.71 342.2 213.66 340.734 214.352C339.268 215.036 337.59 215.378 335.701 215.378ZM355.058 211.222L354.856 212.692C354.721 213.772 354.492 214.897 354.168 216.066C353.853 217.245 353.524 218.338 353.183 219.345C352.85 220.353 352.575 221.153 352.359 221.747H349.499C349.616 221.189 349.778 220.434 349.984 219.48C350.191 218.536 350.394 217.478 350.592 216.309C350.79 215.139 350.938 213.947 351.037 212.733L351.172 211.222H355.058ZM360.928 215L372.992 191.142V190.94H359.039V187.364H377.31V191.061L365.287 215H360.928ZM390.754 215.378C389.063 215.378 387.543 215.054 386.193 214.406C384.853 213.75 383.782 212.85 382.981 211.707C382.181 210.565 381.753 209.26 381.699 207.794H385.748C385.847 208.982 386.373 209.958 387.327 210.722C388.28 211.487 389.423 211.869 390.754 211.869C391.816 211.869 392.756 211.626 393.574 211.141C394.402 210.646 395.05 209.967 395.518 209.103C395.994 208.239 396.233 207.254 396.233 206.148C396.233 205.023 395.99 204.02 395.504 203.138C395.018 202.257 394.348 201.564 393.494 201.06C392.648 200.557 391.676 200.3 390.579 200.291C389.742 200.291 388.901 200.435 388.055 200.723C387.21 201.011 386.526 201.389 386.004 201.857L382.185 201.29L383.737 187.364H398.932V190.94H387.205L386.328 198.672H386.49C387.03 198.15 387.745 197.714 388.636 197.363C389.535 197.012 390.498 196.837 391.523 196.837C393.206 196.837 394.704 197.237 396.017 198.038C397.339 198.838 398.378 199.931 399.134 201.317C399.899 202.693 400.277 204.277 400.268 206.067C400.277 207.857 399.872 209.454 399.053 210.857C398.244 212.261 397.119 213.367 395.68 214.177C394.249 214.978 392.607 215.378 390.754 215.378ZM414.818 215.459C412.686 215.45 410.864 214.888 409.353 213.772C407.841 212.656 406.685 211.033 405.885 208.901C405.084 206.768 404.684 204.2 404.684 201.195C404.684 198.2 405.084 195.64 405.885 193.517C406.694 191.394 407.855 189.775 409.366 188.659C410.887 187.544 412.704 186.986 414.818 186.986C416.932 186.986 418.745 187.548 420.256 188.673C421.767 189.788 422.924 191.407 423.724 193.531C424.534 195.645 424.939 198.2 424.939 201.195C424.939 204.209 424.538 206.782 423.738 208.914C422.937 211.037 421.781 212.661 420.27 213.786C418.758 214.901 416.941 215.459 414.818 215.459ZM414.818 211.856C416.689 211.856 418.151 210.943 419.204 209.116C420.265 207.29 420.796 204.65 420.796 201.195C420.796 198.901 420.553 196.963 420.067 195.379C419.59 193.787 418.902 192.581 418.003 191.763C417.112 190.935 416.05 190.521 414.818 190.521C412.956 190.521 411.494 191.439 410.432 193.274C409.371 195.109 408.835 197.75 408.826 201.195C408.826 203.498 409.065 205.446 409.542 207.038C410.027 208.622 410.716 209.823 411.606 210.641C412.497 211.451 413.567 211.856 414.818 211.856ZM448.311 218.455V183.909H450.524V218.455H448.311ZM455.233 194.624C455.089 193.346 454.496 192.357 453.452 191.655C452.409 190.944 451.095 190.589 449.512 190.589C448.378 190.589 447.398 190.769 446.57 191.129C445.742 191.479 445.099 191.965 444.64 192.586C444.191 193.198 443.966 193.895 443.966 194.678C443.966 195.334 444.119 195.901 444.424 196.378C444.739 196.855 445.149 197.255 445.652 197.579C446.165 197.894 446.714 198.159 447.299 198.375C447.883 198.582 448.446 198.753 448.986 198.888L451.684 199.589C452.566 199.805 453.47 200.098 454.397 200.467C455.323 200.835 456.182 201.321 456.974 201.924C457.766 202.527 458.405 203.273 458.89 204.164C459.385 205.055 459.633 206.121 459.633 207.362C459.633 208.928 459.228 210.317 458.418 211.532C457.617 212.746 456.452 213.705 454.923 214.406C453.403 215.108 451.563 215.459 449.404 215.459C447.335 215.459 445.544 215.13 444.033 214.474C442.522 213.817 441.339 212.886 440.484 211.68C439.629 210.466 439.157 209.027 439.067 207.362H443.25C443.331 208.361 443.655 209.193 444.222 209.859C444.798 210.515 445.531 211.006 446.422 211.33C447.321 211.644 448.306 211.802 449.377 211.802C450.555 211.802 451.603 211.617 452.521 211.249C453.448 210.871 454.176 210.349 454.707 209.683C455.238 209.009 455.503 208.221 455.503 207.322C455.503 206.503 455.269 205.833 454.802 205.311C454.343 204.789 453.718 204.357 452.926 204.016C452.143 203.674 451.257 203.372 450.267 203.112L447.002 202.221C444.789 201.618 443.035 200.732 441.739 199.562C440.453 198.393 439.809 196.846 439.809 194.92C439.809 193.328 440.241 191.938 441.105 190.751C441.968 189.563 443.138 188.641 444.613 187.984C446.089 187.319 447.753 186.986 449.606 186.986C451.477 186.986 453.128 187.314 454.559 187.971C455.998 188.628 457.132 189.532 457.959 190.683C458.787 191.826 459.219 193.139 459.255 194.624H455.233Z" fill="#F7F7F7"/>
<path d="M334.627 245.237V246.975H327.059V252.211H333.186V253.883H327.059V259.262H334.627V261H324.914V245.237H334.627ZM346.013 261H345.144C344.954 261 344.8 260.971 344.682 260.912C344.565 260.853 344.488 260.729 344.451 260.538L344.231 259.504C343.938 259.768 343.652 260.006 343.373 260.219C343.095 260.424 342.801 260.6 342.493 260.747C342.185 260.886 341.855 260.993 341.503 261.066C341.159 261.139 340.774 261.176 340.348 261.176C339.916 261.176 339.509 261.117 339.127 261C338.753 260.875 338.427 260.692 338.148 260.45C337.87 260.208 337.646 259.904 337.477 259.537C337.316 259.163 337.235 258.723 337.235 258.217C337.235 257.777 337.356 257.355 337.598 256.952C337.84 256.541 338.229 256.178 338.764 255.863C339.307 255.548 340.015 255.291 340.887 255.093C341.76 254.888 342.827 254.77 344.088 254.741V253.872C344.088 253.007 343.901 252.354 343.527 251.914C343.161 251.467 342.614 251.243 341.888 251.243C341.412 251.243 341.008 251.305 340.678 251.43C340.356 251.547 340.073 251.683 339.831 251.837C339.597 251.984 339.391 252.119 339.215 252.244C339.047 252.361 338.878 252.42 338.709 252.42C338.577 252.42 338.46 252.387 338.357 252.321C338.262 252.248 338.185 252.16 338.126 252.057L337.774 251.43C338.39 250.836 339.054 250.392 339.765 250.099C340.477 249.806 341.265 249.659 342.13 249.659C342.754 249.659 343.307 249.762 343.791 249.967C344.275 250.172 344.682 250.458 345.012 250.825C345.342 251.192 345.592 251.635 345.76 252.156C345.929 252.677 346.013 253.249 346.013 253.872V261ZM340.931 259.801C341.276 259.801 341.591 259.768 341.877 259.702C342.163 259.629 342.431 259.53 342.68 259.405C342.937 259.273 343.179 259.115 343.406 258.932C343.641 258.749 343.868 258.54 344.088 258.305V255.984C343.186 256.013 342.42 256.087 341.789 256.204C341.159 256.314 340.645 256.461 340.249 256.644C339.853 256.827 339.564 257.044 339.38 257.293C339.204 257.542 339.116 257.821 339.116 258.129C339.116 258.422 339.164 258.675 339.259 258.888C339.355 259.101 339.483 259.277 339.644 259.416C339.806 259.548 339.996 259.647 340.216 259.713C340.436 259.772 340.675 259.801 340.931 259.801ZM349.42 261V249.857H350.542C350.754 249.857 350.901 249.897 350.982 249.978C351.062 250.059 351.117 250.198 351.147 250.396L351.279 252.134C351.66 251.357 352.129 250.752 352.687 250.319C353.251 249.879 353.911 249.659 354.667 249.659C354.975 249.659 355.253 249.696 355.503 249.769C355.752 249.835 355.983 249.93 356.196 250.055L355.943 251.518C355.891 251.701 355.778 251.793 355.602 251.793C355.499 251.793 355.341 251.76 355.129 251.694C354.916 251.621 354.619 251.584 354.238 251.584C353.556 251.584 352.984 251.782 352.522 252.178C352.067 252.574 351.686 253.15 351.378 253.905V261H349.42ZM358.733 261V249.857H359.899C360.177 249.857 360.353 249.993 360.427 250.264L360.581 251.474C361.065 250.939 361.604 250.506 362.198 250.176C362.799 249.846 363.492 249.681 364.277 249.681C364.885 249.681 365.421 249.784 365.883 249.989C366.352 250.187 366.741 250.473 367.049 250.847C367.364 251.214 367.602 251.657 367.764 252.178C367.925 252.699 368.006 253.274 368.006 253.905V261H366.048V253.905C366.048 253.062 365.853 252.409 365.465 251.947C365.083 251.478 364.497 251.243 363.705 251.243C363.125 251.243 362.583 251.382 362.077 251.661C361.578 251.94 361.116 252.317 360.691 252.794V261H358.733ZM373.575 249.857V261H371.617V249.857H373.575ZM374.015 246.359C374.015 246.55 373.975 246.729 373.894 246.898C373.821 247.059 373.718 247.206 373.586 247.338C373.462 247.463 373.315 247.562 373.146 247.635C372.978 247.708 372.798 247.745 372.607 247.745C372.417 247.745 372.237 247.708 372.068 247.635C371.907 247.562 371.76 247.463 371.628 247.338C371.504 247.206 371.405 247.059 371.331 246.898C371.258 246.729 371.221 246.55 371.221 246.359C371.221 246.168 371.258 245.989 371.331 245.82C371.405 245.644 371.504 245.494 371.628 245.369C371.76 245.237 371.907 245.134 372.068 245.061C372.237 244.988 372.417 244.951 372.607 244.951C372.798 244.951 372.978 244.988 373.146 245.061C373.315 245.134 373.462 245.237 373.586 245.369C373.718 245.494 373.821 245.644 373.894 245.82C373.975 245.989 374.015 246.168 374.015 246.359ZM377.466 261V249.857H378.632C378.911 249.857 379.087 249.993 379.16 250.264L379.314 251.474C379.798 250.939 380.337 250.506 380.931 250.176C381.532 249.846 382.225 249.681 383.01 249.681C383.619 249.681 384.154 249.784 384.616 249.989C385.085 250.187 385.474 250.473 385.782 250.847C386.097 251.214 386.336 251.657 386.497 252.178C386.658 252.699 386.739 253.274 386.739 253.905V261H384.781V253.905C384.781 253.062 384.587 252.409 384.198 251.947C383.817 251.478 383.23 251.243 382.438 251.243C381.859 251.243 381.316 251.382 380.81 251.661C380.311 251.94 379.849 252.317 379.424 252.794V261H377.466ZM393.882 249.67C394.366 249.67 394.817 249.725 395.235 249.835C395.66 249.938 396.045 250.092 396.39 250.297H399.415V251.023C399.415 251.265 399.261 251.419 398.953 251.485L397.688 251.661C397.937 252.138 398.062 252.669 398.062 253.256C398.062 253.799 397.955 254.294 397.743 254.741C397.537 255.181 397.248 255.559 396.874 255.874C396.507 256.189 396.067 256.431 395.554 256.6C395.048 256.769 394.49 256.853 393.882 256.853C393.361 256.853 392.87 256.791 392.408 256.666C392.173 256.813 391.993 256.97 391.869 257.139C391.751 257.308 391.693 257.473 391.693 257.634C391.693 257.898 391.799 258.1 392.012 258.239C392.224 258.371 392.507 258.466 392.859 258.525C393.211 258.584 393.61 258.62 394.058 258.635C394.505 258.65 394.96 258.675 395.422 258.712C395.891 258.741 396.349 258.796 396.797 258.877C397.244 258.958 397.644 259.09 397.996 259.273C398.348 259.456 398.63 259.709 398.843 260.032C399.055 260.355 399.162 260.773 399.162 261.286C399.162 261.763 399.041 262.225 398.799 262.672C398.564 263.119 398.223 263.515 397.776 263.86C397.328 264.212 396.782 264.491 396.137 264.696C395.491 264.909 394.762 265.015 393.948 265.015C393.134 265.015 392.419 264.934 391.803 264.773C391.194 264.612 390.688 264.395 390.285 264.124C389.881 263.853 389.577 263.537 389.372 263.178C389.174 262.826 389.075 262.456 389.075 262.067C389.075 261.517 389.247 261.051 389.592 260.67C389.944 260.281 390.424 259.973 391.033 259.746C390.717 259.599 390.464 259.405 390.274 259.163C390.09 258.914 389.999 258.584 389.999 258.173C389.999 258.012 390.028 257.847 390.087 257.678C390.145 257.502 390.233 257.33 390.351 257.161C390.475 256.992 390.626 256.831 390.802 256.677C390.978 256.523 391.183 256.387 391.418 256.27C390.868 255.962 390.435 255.555 390.12 255.049C389.812 254.536 389.658 253.938 389.658 253.256C389.658 252.713 389.76 252.222 389.966 251.782C390.178 251.335 390.472 250.957 390.846 250.649C391.22 250.334 391.663 250.092 392.177 249.923C392.697 249.754 393.266 249.67 393.882 249.67ZM397.358 261.605C397.358 261.326 397.281 261.103 397.127 260.934C396.973 260.765 396.764 260.637 396.5 260.549C396.236 260.454 395.931 260.384 395.587 260.34C395.242 260.296 394.879 260.267 394.498 260.252C394.116 260.23 393.728 260.208 393.332 260.186C392.936 260.164 392.558 260.124 392.199 260.065C391.781 260.263 391.44 260.505 391.176 260.791C390.919 261.077 390.791 261.418 390.791 261.814C390.791 262.063 390.853 262.294 390.978 262.507C391.11 262.727 391.308 262.914 391.572 263.068C391.836 263.229 392.166 263.354 392.562 263.442C392.965 263.537 393.438 263.585 393.981 263.585C394.509 263.585 394.982 263.537 395.4 263.442C395.818 263.347 396.17 263.211 396.456 263.035C396.749 262.859 396.973 262.65 397.127 262.408C397.281 262.166 397.358 261.898 397.358 261.605ZM393.882 255.555C394.278 255.555 394.626 255.5 394.927 255.39C395.235 255.28 395.491 255.126 395.697 254.928C395.902 254.73 396.056 254.495 396.159 254.224C396.261 253.945 396.313 253.641 396.313 253.311C396.313 252.629 396.104 252.086 395.686 251.683C395.275 251.28 394.674 251.078 393.882 251.078C393.097 251.078 392.496 251.28 392.078 251.683C391.667 252.086 391.462 252.629 391.462 253.311C391.462 253.641 391.513 253.945 391.616 254.224C391.726 254.495 391.883 254.73 392.089 254.928C392.294 255.126 392.547 255.28 392.848 255.39C393.148 255.5 393.493 255.555 393.882 255.555ZM411.011 249.681C411.825 249.681 412.558 249.817 413.211 250.088C413.871 250.359 414.428 250.744 414.883 251.243C415.345 251.742 415.697 252.347 415.939 253.058C416.188 253.762 416.313 254.55 416.313 255.423C416.313 256.303 416.188 257.095 415.939 257.799C415.697 258.503 415.345 259.104 414.883 259.603C414.428 260.102 413.871 260.487 413.211 260.758C412.558 261.022 411.825 261.154 411.011 261.154C410.197 261.154 409.46 261.022 408.8 260.758C408.147 260.487 407.59 260.102 407.128 259.603C406.666 259.104 406.31 258.503 406.061 257.799C405.812 257.095 405.687 256.303 405.687 255.423C405.687 254.55 405.812 253.762 406.061 253.058C406.31 252.347 406.666 251.742 407.128 251.243C407.59 250.744 408.147 250.359 408.8 250.088C409.46 249.817 410.197 249.681 411.011 249.681ZM411.011 259.625C412.111 259.625 412.932 259.258 413.475 258.525C414.018 257.784 414.289 256.754 414.289 255.434C414.289 254.107 414.018 253.073 413.475 252.332C412.932 251.591 412.111 251.221 411.011 251.221C410.454 251.221 409.97 251.316 409.559 251.507C409.148 251.698 408.804 251.973 408.525 252.332C408.254 252.691 408.048 253.135 407.909 253.663C407.777 254.184 407.711 254.774 407.711 255.434C407.711 256.094 407.777 256.684 407.909 257.205C408.048 257.726 408.254 258.166 408.525 258.525C408.804 258.877 409.148 259.148 409.559 259.339C409.97 259.53 410.454 259.625 411.011 259.625ZM419.606 261V251.529L418.374 251.386C418.22 251.349 418.091 251.294 417.989 251.221C417.893 251.14 417.846 251.027 417.846 250.88V250.077H419.606V248.999C419.606 248.361 419.694 247.796 419.87 247.305C420.053 246.806 420.31 246.388 420.64 246.051C420.977 245.706 421.38 245.446 421.85 245.27C422.319 245.094 422.847 245.006 423.434 245.006C423.932 245.006 424.394 245.079 424.82 245.226L424.776 246.205C424.768 246.352 424.706 246.44 424.589 246.469C424.471 246.498 424.306 246.513 424.094 246.513H423.753C423.415 246.513 423.107 246.557 422.829 246.645C422.557 246.733 422.323 246.876 422.125 247.074C421.927 247.272 421.773 247.532 421.663 247.855C421.56 248.178 421.509 248.577 421.509 249.054V250.077H424.732V251.496H421.575V261H419.606ZM437.949 255.555C437.949 256.435 437.839 257.223 437.619 257.92C437.406 258.617 437.087 259.207 436.662 259.691C436.244 260.168 435.727 260.534 435.111 260.791C434.495 261.048 433.787 261.176 432.988 261.176C432.276 261.176 431.536 261.073 430.766 260.868C430.78 260.655 430.799 260.446 430.821 260.241C430.843 260.028 430.865 259.819 430.887 259.614C430.901 259.489 430.945 259.39 431.019 259.317C431.099 259.236 431.217 259.196 431.371 259.196C431.503 259.196 431.679 259.229 431.899 259.295C432.119 259.361 432.412 259.394 432.779 259.394C433.263 259.394 433.692 259.321 434.066 259.174C434.447 259.027 434.766 258.8 435.023 258.492C435.287 258.184 435.485 257.792 435.617 257.315C435.756 256.831 435.826 256.259 435.826 255.599V245.237H437.949V255.555ZM450.111 261H449.242C449.051 261 448.897 260.971 448.78 260.912C448.663 260.853 448.586 260.729 448.549 260.538L448.329 259.504C448.036 259.768 447.75 260.006 447.471 260.219C447.192 260.424 446.899 260.6 446.591 260.747C446.283 260.886 445.953 260.993 445.601 261.066C445.256 261.139 444.871 261.176 444.446 261.176C444.013 261.176 443.606 261.117 443.225 261C442.851 260.875 442.525 260.692 442.246 260.45C441.967 260.208 441.744 259.904 441.575 259.537C441.414 259.163 441.333 258.723 441.333 258.217C441.333 257.777 441.454 257.355 441.696 256.952C441.938 256.541 442.327 256.178 442.862 255.863C443.405 255.548 444.112 255.291 444.985 255.093C445.858 254.888 446.925 254.77 448.186 254.741V253.872C448.186 253.007 447.999 252.354 447.625 251.914C447.258 251.467 446.712 251.243 445.986 251.243C445.509 251.243 445.106 251.305 444.776 251.43C444.453 251.547 444.171 251.683 443.929 251.837C443.694 251.984 443.489 252.119 443.313 252.244C443.144 252.361 442.976 252.42 442.807 252.42C442.675 252.42 442.558 252.387 442.455 252.321C442.36 252.248 442.283 252.16 442.224 252.057L441.872 251.43C442.488 250.836 443.152 250.392 443.863 250.099C444.574 249.806 445.363 249.659 446.228 249.659C446.851 249.659 447.405 249.762 447.889 249.967C448.373 250.172 448.78 250.458 449.11 250.825C449.44 251.192 449.689 251.635 449.858 252.156C450.027 252.677 450.111 253.249 450.111 253.872V261ZM445.029 259.801C445.374 259.801 445.689 259.768 445.975 259.702C446.261 259.629 446.529 259.53 446.778 259.405C447.035 259.273 447.277 259.115 447.504 258.932C447.739 258.749 447.966 258.54 448.186 258.305V255.984C447.284 256.013 446.518 256.087 445.887 256.204C445.256 256.314 444.743 256.461 444.347 256.644C443.951 256.827 443.661 257.044 443.478 257.293C443.302 257.542 443.214 257.821 443.214 258.129C443.214 258.422 443.262 258.675 443.357 258.888C443.452 259.101 443.581 259.277 443.742 259.416C443.903 259.548 444.094 259.647 444.314 259.713C444.534 259.772 444.772 259.801 445.029 259.801ZM453.517 261V249.857H454.683C454.962 249.857 455.138 249.993 455.211 250.264L455.365 251.474C455.849 250.939 456.388 250.506 456.982 250.176C457.584 249.846 458.277 249.681 459.061 249.681C459.67 249.681 460.205 249.784 460.667 249.989C461.137 250.187 461.525 250.473 461.833 250.847C462.149 251.214 462.387 251.657 462.548 252.178C462.71 252.699 462.79 253.274 462.79 253.905V261H460.832V253.905C460.832 253.062 460.638 252.409 460.249 251.947C459.868 251.478 459.281 251.243 458.489 251.243C457.91 251.243 457.367 251.382 456.861 251.661C456.363 251.94 455.901 252.317 455.475 252.794V261H453.517ZM467.876 249.857V256.963C467.876 257.806 468.07 258.459 468.459 258.921C468.848 259.383 469.434 259.614 470.219 259.614C470.791 259.614 471.33 259.478 471.836 259.207C472.342 258.936 472.808 258.558 473.233 258.074V249.857H475.191V261H474.025C473.746 261 473.57 260.864 473.497 260.593L473.343 259.394C472.859 259.929 472.316 260.362 471.715 260.692C471.114 261.015 470.424 261.176 469.647 261.176C469.038 261.176 468.499 261.077 468.03 260.879C467.568 260.674 467.179 260.388 466.864 260.021C466.549 259.654 466.31 259.211 466.149 258.69C465.995 258.169 465.918 257.594 465.918 256.963V249.857H467.876ZM487.031 261H486.162C485.971 261 485.817 260.971 485.7 260.912C485.582 260.853 485.505 260.729 485.469 260.538L485.249 259.504C484.955 259.768 484.669 260.006 484.391 260.219C484.112 260.424 483.819 260.6 483.511 260.747C483.203 260.886 482.873 260.993 482.521 261.066C482.176 261.139 481.791 261.176 481.366 261.176C480.933 261.176 480.526 261.117 480.145 261C479.771 260.875 479.444 260.692 479.166 260.45C478.887 260.208 478.663 259.904 478.495 259.537C478.333 259.163 478.253 258.723 478.253 258.217C478.253 257.777 478.374 257.355 478.616 256.952C478.858 256.541 479.246 256.178 479.782 255.863C480.324 255.548 481.032 255.291 481.905 255.093C482.777 254.888 483.844 254.77 485.106 254.741V253.872C485.106 253.007 484.919 252.354 484.545 251.914C484.178 251.467 483.632 251.243 482.906 251.243C482.429 251.243 482.026 251.305 481.696 251.43C481.373 251.547 481.091 251.683 480.849 251.837C480.614 251.984 480.409 252.119 480.233 252.244C480.064 252.361 479.895 252.42 479.727 252.42C479.595 252.42 479.477 252.387 479.375 252.321C479.279 252.248 479.202 252.16 479.144 252.057L478.792 251.43C479.408 250.836 480.071 250.392 480.783 250.099C481.494 249.806 482.282 249.659 483.148 249.659C483.771 249.659 484.325 249.762 484.809 249.967C485.293 250.172 485.7 250.458 486.03 250.825C486.36 251.192 486.609 251.635 486.778 252.156C486.946 252.677 487.031 253.249 487.031 253.872V261ZM481.949 259.801C482.293 259.801 482.609 259.768 482.895 259.702C483.181 259.629 483.448 259.53 483.698 259.405C483.954 259.273 484.196 259.115 484.424 258.932C484.658 258.749 484.886 258.54 485.106 258.305V255.984C484.204 256.013 483.437 256.087 482.807 256.204C482.176 256.314 481.663 256.461 481.267 256.644C480.871 256.827 480.581 257.044 480.398 257.293C480.222 257.542 480.134 257.821 480.134 258.129C480.134 258.422 480.181 258.675 480.277 258.888C480.372 259.101 480.5 259.277 480.662 259.416C480.823 259.548 481.014 259.647 481.234 259.713C481.454 259.772 481.692 259.801 481.949 259.801ZM490.437 261V249.857H491.559C491.772 249.857 491.918 249.897 491.999 249.978C492.08 250.059 492.135 250.198 492.164 250.396L492.296 252.134C492.677 251.357 493.147 250.752 493.704 250.319C494.269 249.879 494.929 249.659 495.684 249.659C495.992 249.659 496.271 249.696 496.52 249.769C496.769 249.835 497 249.93 497.213 250.055L496.96 251.518C496.909 251.701 496.795 251.793 496.619 251.793C496.516 251.793 496.359 251.76 496.146 251.694C495.933 251.621 495.636 251.584 495.255 251.584C494.573 251.584 494.001 251.782 493.539 252.178C493.084 252.574 492.703 253.15 492.395 253.905V261H490.437ZM503.017 264.289C502.951 264.436 502.867 264.553 502.764 264.641C502.669 264.729 502.518 264.773 502.313 264.773H500.861L502.896 260.351L498.298 249.857H499.992C500.161 249.857 500.293 249.901 500.388 249.989C500.483 250.07 500.553 250.161 500.597 250.264L503.578 257.282C503.644 257.443 503.699 257.605 503.743 257.766C503.794 257.927 503.838 258.092 503.875 258.261C503.926 258.092 503.978 257.927 504.029 257.766C504.08 257.605 504.139 257.44 504.205 257.271L507.098 250.264C507.142 250.147 507.215 250.051 507.318 249.978C507.428 249.897 507.545 249.857 507.67 249.857H509.232L503.017 264.289Z" fill="#969696"/>
<circle opacity="0.3" cx="243.5" cy="223.5" r="45.5" fill="url(#paint2_linear_1_87)"/>
<path d="M242.459 241.455V206.909H244.672V241.455H242.459ZM249.382 217.624C249.238 216.346 248.644 215.357 247.601 214.655C246.557 213.944 245.244 213.589 243.66 213.589C242.527 213.589 241.546 213.769 240.718 214.129C239.891 214.479 239.248 214.965 238.789 215.586C238.339 216.198 238.114 216.895 238.114 217.678C238.114 218.334 238.267 218.901 238.573 219.378C238.888 219.855 239.297 220.255 239.801 220.579C240.314 220.894 240.862 221.159 241.447 221.375C242.032 221.582 242.594 221.753 243.134 221.888L245.833 222.589C246.714 222.805 247.619 223.098 248.545 223.467C249.472 223.835 250.331 224.321 251.123 224.924C251.914 225.527 252.553 226.273 253.039 227.164C253.534 228.055 253.781 229.121 253.781 230.362C253.781 231.928 253.376 233.317 252.566 234.532C251.766 235.746 250.601 236.705 249.071 237.406C247.551 238.108 245.711 238.459 243.552 238.459C241.483 238.459 239.693 238.13 238.182 237.474C236.67 236.817 235.487 235.886 234.633 234.68C233.778 233.466 233.306 232.027 233.216 230.362H237.399C237.48 231.361 237.804 232.193 238.37 232.859C238.946 233.515 239.679 234.006 240.57 234.33C241.47 234.644 242.455 234.802 243.525 234.802C244.704 234.802 245.752 234.617 246.669 234.249C247.596 233.871 248.325 233.349 248.856 232.683C249.386 232.009 249.652 231.221 249.652 230.322C249.652 229.503 249.418 228.833 248.95 228.311C248.491 227.789 247.866 227.357 247.074 227.016C246.292 226.674 245.406 226.372 244.416 226.112L241.15 225.221C238.937 224.618 237.183 223.732 235.888 222.562C234.601 221.393 233.958 219.846 233.958 217.92C233.958 216.328 234.39 214.938 235.253 213.751C236.117 212.563 237.286 211.641 238.762 210.984C240.237 210.319 241.901 209.986 243.755 209.986C245.626 209.986 247.277 210.314 248.707 210.971C250.147 211.628 251.28 212.532 252.108 213.683C252.935 214.826 253.367 216.139 253.403 217.624H249.382Z" fill="#F7F7F7"/>
<defs>
<filter id="filter0_d_1_87" x="629" y="406.5" width="99" height="99" filterUnits="userSpaceOnUse" color-interpolation-filters="sRGB">
<feFlood flood-opacity="0" result="BackgroundImageFix"/>
<feColorMatrix in="SourceAlpha" type="matrix" values="0 0 0 0 0 0 0 0 0 0 0 0 0 0 0 0 0 0 127 0" result="hardAlpha"/>
<feOffset/>
<feGaussianBlur stdDeviation="17"/>
<feComposite in2="hardAlpha" operator="out"/>
<feColorMatrix type="matrix" values="0 0 0 0 1 0 0 0 0 1 0 0 0 0 1 0 0 0 0.15 0"/>
<feBlend mode="normal" in2="BackgroundImageFix" result="effect1_dropShadow_1_87"/>
<feBlend mode="normal" in="SourceGraphic" in2="effect1_dropShadow_1_87" result="shape"/>
</filter>
<filter id="filter1_d_1_87" x="-1" y="0" width="739" height="452" filterUnits="userSpaceOnUse" color-interpolation-filters="sRGB">
<feFlood flood-opacity="0" result="BackgroundImageFix"/>
<feColorMatrix in="SourceAlpha" type="matrix" values="0 0 0 0 0 0 0 0 0 0 0 0 0 0 0 0 0 0 127 0" result="hardAlpha"/>
<feOffset/>
<feGaussianBlur stdDeviation="72"/>
<feComposite in2="hardAlpha" operator="out"/>
<feColorMatrix type="matrix" values="0 0 0 0 0 0 0 0 0 0 0 0 0 0 0 0 0 0 0.05 0"/>
<feBlend mode="normal" in2="BackgroundImageFix" result="effect1_dropShadow_1_87"/>
<feBlend mode="normal" in="SourceGraphic" in2="effect1_dropShadow_1_87" result="shape"/>
</filter>
<linearGradient id="paint0_linear_1_87" x1="739" y1="316" x2="911" y2="316" gradientUnits="userSpaceOnUse">
<stop stop-color="#3FE8AB"/>
<stop offset="1" stop-color="#78CDCD"/>
</linearGradient>
<linearGradient id="paint1_linear_1_87" x1="269" y1="483.294" x2="911" y2="483.294" gradientUnits="userSpaceOnUse">
<stop stop-color="#3FE8AB"/>
<stop offset="1" stop-color="#78CDCD"/>
</linearGradient>
<linearGradient id="paint2_linear_1_87" x1="198" y1="269" x2="289" y2="269" gradientUnits="userSpaceOnUse">
<stop stop-color="#3FE8AB"/>
<stop offset="1" stop-color="#78CDCD"/>
</linearGradient>
</defs>
</svg>
