<svg width="781" height="525" viewBox="0 0 781 525" fill="none" xmlns="http://www.w3.org/2000/svg">
<rect x="68" y="75" width="713" height="450" rx="20" fill="#2A2C2B"/>
<rect x="575" y="118" width="172" height="47" rx="10" fill="url(#paint0_linear_240_586)"/>
<path d="M621.468 138.642C621.417 138.726 621.363 138.789 621.307 138.831C621.251 138.868 621.181 138.887 621.097 138.887C621.008 138.887 620.908 138.85 620.796 138.775C620.689 138.7 620.553 138.619 620.39 138.53C620.231 138.437 620.042 138.353 619.823 138.278C619.604 138.199 619.342 138.159 619.039 138.159C618.759 138.159 618.512 138.194 618.297 138.264C618.087 138.334 617.91 138.432 617.765 138.558C617.62 138.684 617.511 138.833 617.436 139.006C617.366 139.174 617.331 139.358 617.331 139.559C617.331 139.816 617.399 140.03 617.534 140.203C617.669 140.371 617.847 140.516 618.066 140.637C618.29 140.758 618.544 140.866 618.829 140.959C619.114 141.048 619.403 141.143 619.697 141.246C619.996 141.349 620.287 141.465 620.572 141.596C620.857 141.727 621.109 141.892 621.328 142.093C621.552 142.294 621.732 142.539 621.867 142.828C622.002 143.117 622.07 143.47 622.07 143.885C622.07 144.333 621.993 144.753 621.839 145.145C621.685 145.537 621.461 145.88 621.167 146.174C620.878 146.463 620.518 146.692 620.089 146.86C619.664 147.028 619.179 147.112 618.633 147.112C618.311 147.112 617.996 147.079 617.688 147.014C617.385 146.953 617.093 146.867 616.813 146.755C616.538 146.638 616.279 146.498 616.036 146.335C615.793 146.172 615.576 145.99 615.385 145.789L615.861 145.005C615.903 144.94 615.957 144.888 616.022 144.851C616.087 144.814 616.16 144.795 616.239 144.795C616.346 144.795 616.465 144.846 616.596 144.949C616.727 145.047 616.883 145.157 617.065 145.278C617.252 145.395 617.476 145.504 617.737 145.607C617.998 145.705 618.311 145.754 618.675 145.754C619.268 145.754 619.725 145.609 620.047 145.32C620.374 145.031 620.537 144.632 620.537 144.123C620.537 143.838 620.469 143.607 620.334 143.43C620.199 143.248 620.019 143.096 619.795 142.975C619.576 142.854 619.324 142.751 619.039 142.667C618.754 142.583 618.465 142.494 618.171 142.401C617.877 142.303 617.588 142.191 617.303 142.065C617.018 141.934 616.764 141.766 616.54 141.561C616.321 141.351 616.143 141.094 616.008 140.791C615.873 140.483 615.805 140.1 615.805 139.643C615.805 139.279 615.875 138.927 616.015 138.586C616.16 138.245 616.367 137.944 616.638 137.683C616.913 137.417 617.252 137.205 617.653 137.046C618.054 136.887 618.512 136.808 619.025 136.808C619.604 136.808 620.133 136.899 620.614 137.081C621.099 137.263 621.517 137.522 621.867 137.858L621.468 138.642ZM631.533 145.677L631.526 147H625.24V136.92H631.526V138.243H626.885V141.281H630.595V142.562H626.885V145.677H631.533ZM637.842 142.058C638.206 142.058 638.526 142.011 638.801 141.918C639.081 141.825 639.312 141.694 639.494 141.526C639.681 141.353 639.821 141.146 639.914 140.903C640.007 140.66 640.054 140.39 640.054 140.091C640.054 139.797 640.007 139.533 639.914 139.3C639.825 139.067 639.69 138.868 639.508 138.705C639.326 138.542 639.095 138.418 638.815 138.334C638.54 138.245 638.215 138.201 637.842 138.201H636.344V142.058H637.842ZM637.842 136.92C638.5 136.92 639.069 136.997 639.55 137.151C640.035 137.305 640.434 137.522 640.747 137.802C641.064 138.077 641.3 138.411 641.454 138.803C641.608 139.19 641.685 139.62 641.685 140.091C641.685 140.572 641.603 141.013 641.44 141.414C641.277 141.811 641.034 142.154 640.712 142.443C640.39 142.728 639.989 142.952 639.508 143.115C639.032 143.274 638.477 143.353 637.842 143.353H636.344V147H634.706V136.92H637.842ZM651.588 138.285H648.445V147H646.814V138.285H643.664V136.92H651.588V138.285ZM660.684 145.677L660.677 147H654.391V136.92H660.677V138.243H656.036V141.281H659.746V142.562H656.036V145.677H660.684ZM674.581 136.92V147H673.139V140.091C673.139 139.979 673.141 139.858 673.146 139.727C673.155 139.592 673.167 139.456 673.181 139.321L669.94 145.306C669.814 145.553 669.62 145.677 669.359 145.677H669.128C668.862 145.677 668.668 145.553 668.547 145.306L665.257 139.307C665.271 139.442 665.28 139.578 665.285 139.713C665.294 139.848 665.299 139.974 665.299 140.091V147H663.857V136.92H665.082C665.227 136.92 665.339 136.934 665.418 136.962C665.497 136.985 665.57 137.062 665.635 137.193L668.869 143.052C668.939 143.187 669.004 143.327 669.065 143.472C669.13 143.612 669.189 143.757 669.24 143.906C669.296 143.757 669.354 143.61 669.415 143.465C669.48 143.316 669.548 143.173 669.618 143.038L672.803 137.193C672.868 137.062 672.941 136.985 673.02 136.962C673.099 136.934 673.211 136.92 673.356 136.92H674.581ZM682.036 145.705C682.405 145.705 682.715 145.663 682.967 145.579C683.224 145.49 683.432 145.371 683.59 145.222C683.754 145.073 683.87 144.898 683.94 144.697C684.015 144.492 684.052 144.272 684.052 144.039C684.052 143.563 683.889 143.19 683.562 142.919C683.24 142.644 682.729 142.506 682.029 142.506H680.006V145.705H682.036ZM680.006 138.201V141.351H681.644C682.344 141.351 682.867 141.216 683.212 140.945C683.558 140.674 683.73 140.285 683.73 139.776C683.73 139.221 683.567 138.819 683.24 138.572C682.918 138.325 682.412 138.201 681.721 138.201H680.006ZM681.721 136.92C682.365 136.92 682.916 136.983 683.373 137.109C683.831 137.23 684.206 137.405 684.5 137.634C684.794 137.863 685.009 138.143 685.144 138.474C685.284 138.801 685.354 139.169 685.354 139.58C685.354 139.818 685.317 140.049 685.242 140.273C685.172 140.492 685.06 140.7 684.906 140.896C684.757 141.087 684.568 141.26 684.339 141.414C684.111 141.568 683.84 141.696 683.527 141.799C684.955 142.102 685.669 142.861 685.669 144.074C685.669 144.503 685.588 144.898 685.424 145.257C685.266 145.612 685.032 145.92 684.724 146.181C684.421 146.438 684.045 146.638 683.597 146.783C683.149 146.928 682.638 147 682.064 147H678.368V136.92H681.721ZM695.208 145.677L695.201 147H688.915V136.92H695.201V138.243H690.56V141.281H694.27V142.562H690.56V145.677H695.208ZM701.307 141.75C701.681 141.75 702.007 141.706 702.287 141.617C702.567 141.524 702.801 141.395 702.987 141.232C703.174 141.069 703.314 140.875 703.407 140.651C703.501 140.422 703.547 140.17 703.547 139.895C703.547 139.344 703.365 138.924 703.001 138.635C702.637 138.346 702.087 138.201 701.349 138.201H700.019V141.75H701.307ZM706.053 147H704.59C704.301 147 704.091 146.888 703.96 146.664L701.608 143.269C701.529 143.152 701.443 143.068 701.349 143.017C701.256 142.966 701.116 142.94 700.929 142.94H700.019V147H698.381V136.92H701.349C702.012 136.92 702.581 136.988 703.057 137.123C703.538 137.258 703.932 137.452 704.24 137.704C704.548 137.951 704.775 138.25 704.919 138.6C705.069 138.95 705.143 139.34 705.143 139.769C705.143 140.119 705.09 140.446 704.982 140.749C704.88 141.052 704.728 141.328 704.527 141.575C704.331 141.822 704.089 142.037 703.799 142.219C703.51 142.401 703.181 142.543 702.812 142.646C703.013 142.767 703.186 142.938 703.33 143.157L706.053 147Z" fill="#111111"/>
<path d="M462.753 267.898C460.717 267.898 458.918 267.547 457.355 266.847C455.802 266.146 454.585 265.18 453.705 263.949C452.824 262.718 452.388 261.316 452.398 259.744C452.388 258.513 452.639 257.382 453.151 256.349C453.671 255.308 454.377 254.441 455.267 253.75C456.157 253.049 457.152 252.604 458.25 252.415V252.244C456.801 251.894 455.641 251.117 454.77 249.915C453.899 248.712 453.468 247.33 453.477 245.767C453.468 244.28 453.861 242.955 454.656 241.79C455.461 240.616 456.564 239.692 457.966 239.02C459.367 238.348 460.963 238.011 462.753 238.011C464.524 238.011 466.105 238.352 467.497 239.034C468.899 239.706 470.002 240.63 470.807 241.804C471.612 242.969 472.019 244.29 472.028 245.767C472.019 247.33 471.574 248.712 470.693 249.915C469.813 251.117 468.667 251.894 467.256 252.244V252.415C468.345 252.604 469.325 253.049 470.196 253.75C471.077 254.441 471.777 255.308 472.298 256.349C472.829 257.382 473.098 258.513 473.108 259.744C473.098 261.316 472.653 262.718 471.773 263.949C470.892 265.18 469.67 266.146 468.108 266.847C466.555 267.547 464.77 267.898 462.753 267.898ZM462.753 264.304C463.955 264.304 464.997 264.105 465.878 263.707C466.759 263.3 467.44 262.737 467.923 262.017C468.406 261.288 468.652 260.436 468.662 259.46C468.652 258.447 468.387 257.552 467.866 256.776C467.355 255.999 466.659 255.388 465.778 254.943C464.898 254.498 463.889 254.276 462.753 254.276C461.607 254.276 460.589 254.498 459.699 254.943C458.809 255.388 458.108 255.999 457.597 256.776C457.085 257.552 456.834 258.447 456.844 259.46C456.834 260.436 457.066 261.288 457.54 262.017C458.023 262.737 458.709 263.3 459.599 263.707C460.49 264.105 461.541 264.304 462.753 264.304ZM462.753 250.767C463.719 250.767 464.576 250.573 465.324 250.185C466.072 249.796 466.659 249.257 467.085 248.565C467.521 247.874 467.743 247.064 467.753 246.136C467.743 245.227 467.526 244.432 467.099 243.75C466.683 243.068 466.1 242.543 465.352 242.173C464.604 241.795 463.738 241.605 462.753 241.605C461.749 241.605 460.868 241.795 460.111 242.173C459.363 242.543 458.78 243.068 458.364 243.75C457.947 244.432 457.743 245.227 457.753 246.136C457.743 247.064 457.952 247.874 458.378 248.565C458.804 249.257 459.391 249.796 460.139 250.185C460.897 250.573 461.768 250.767 462.753 250.767ZM480.192 267.77C479.416 267.77 478.748 267.495 478.19 266.946C477.631 266.387 477.352 265.715 477.352 264.929C477.352 264.152 477.631 263.49 478.19 262.94C478.748 262.382 479.416 262.102 480.192 262.102C480.969 262.102 481.637 262.382 482.195 262.94C482.754 263.49 483.033 264.152 483.033 264.929C483.033 265.45 482.901 265.928 482.636 266.364C482.38 266.79 482.039 267.131 481.613 267.386C481.187 267.642 480.713 267.77 480.192 267.77ZM488.903 267.5L501.602 242.386V242.173H486.915V238.409H506.148V242.301L493.491 267.5H488.903ZM508.133 261.818V258.267L520.704 238.409H523.502V243.636H521.727L512.735 257.869V258.097H529.965V261.818H508.133ZM521.925 267.5V260.739L521.954 259.119V238.409H526.116V267.5H521.925ZM545.072 267.898C543.774 267.879 542.496 267.642 541.237 267.188C539.987 266.733 538.85 265.975 537.827 264.915C536.805 263.854 535.986 262.429 535.37 260.639C534.764 258.849 534.461 256.615 534.461 253.935C534.461 251.397 534.712 249.143 535.214 247.173C535.725 245.204 536.459 243.542 537.415 242.188C538.372 240.824 539.527 239.787 540.881 239.077C542.236 238.366 543.755 238.011 545.441 238.011C547.174 238.011 548.713 238.352 550.058 239.034C551.402 239.716 552.491 240.658 553.325 241.861C554.167 243.063 554.702 244.432 554.93 245.966H550.597C550.304 244.754 549.721 243.764 548.85 242.997C547.979 242.23 546.843 241.847 545.441 241.847C543.31 241.847 541.648 242.775 540.455 244.631C539.272 246.487 538.675 249.067 538.665 252.372H538.879C539.38 251.548 539.996 250.848 540.725 250.27C541.464 249.683 542.288 249.233 543.197 248.92C544.115 248.598 545.081 248.438 546.094 248.438C547.78 248.438 549.305 248.849 550.668 249.673C552.041 250.488 553.135 251.615 553.95 253.054C554.764 254.493 555.171 256.141 555.171 257.997C555.171 259.853 554.75 261.534 553.907 263.04C553.074 264.545 551.899 265.739 550.384 266.619C548.869 267.491 547.098 267.917 545.072 267.898ZM545.058 264.205C546.175 264.205 547.174 263.93 548.055 263.381C548.935 262.831 549.631 262.093 550.143 261.165C550.654 260.237 550.91 259.2 550.91 258.054C550.91 256.937 550.659 255.919 550.157 255C549.665 254.081 548.983 253.352 548.112 252.812C547.25 252.273 546.265 252.003 545.157 252.003C544.314 252.003 543.533 252.164 542.813 252.486C542.103 252.808 541.478 253.253 540.938 253.821C540.398 254.389 539.972 255.043 539.66 255.781C539.357 256.51 539.205 257.282 539.205 258.097C539.205 259.186 539.456 260.194 539.958 261.122C540.469 262.05 541.165 262.798 542.046 263.366C542.936 263.925 543.94 264.205 545.058 264.205ZM579.908 271.136V234.773H582.238V271.136H579.908ZM587.195 246.051C587.044 244.706 586.419 243.665 585.32 242.926C584.222 242.178 582.839 241.804 581.173 241.804C579.979 241.804 578.947 241.993 578.076 242.372C577.205 242.741 576.528 243.253 576.045 243.906C575.571 244.55 575.335 245.284 575.335 246.108C575.335 246.799 575.496 247.396 575.817 247.898C576.149 248.4 576.58 248.821 577.11 249.162C577.65 249.493 578.228 249.773 578.843 250C579.459 250.218 580.05 250.398 580.619 250.54L583.46 251.278C584.388 251.506 585.339 251.813 586.315 252.202C587.29 252.59 588.194 253.101 589.028 253.736C589.861 254.37 590.533 255.156 591.045 256.094C591.566 257.031 591.826 258.153 591.826 259.46C591.826 261.108 591.4 262.571 590.548 263.849C589.705 265.128 588.478 266.136 586.869 266.875C585.268 267.614 583.332 267.983 581.059 267.983C578.881 267.983 576.996 267.637 575.406 266.946C573.815 266.255 572.569 265.275 571.67 264.006C570.77 262.727 570.273 261.212 570.178 259.46H574.582C574.667 260.511 575.008 261.387 575.604 262.088C576.21 262.779 576.982 263.295 577.92 263.636C578.867 263.968 579.904 264.134 581.031 264.134C582.271 264.134 583.374 263.939 584.34 263.551C585.316 263.153 586.083 262.604 586.641 261.903C587.2 261.193 587.479 260.365 587.479 259.418C587.479 258.556 587.233 257.85 586.741 257.301C586.258 256.752 585.6 256.297 584.766 255.938C583.942 255.578 583.01 255.26 581.968 254.986L578.531 254.048C576.201 253.414 574.354 252.481 572.991 251.25C571.637 250.019 570.96 248.39 570.96 246.364C570.96 244.687 571.414 243.224 572.323 241.974C573.232 240.724 574.463 239.754 576.016 239.062C577.569 238.362 579.321 238.011 581.272 238.011C583.242 238.011 584.979 238.357 586.485 239.048C588 239.74 589.193 240.691 590.065 241.903C590.936 243.106 591.39 244.489 591.428 246.051H587.195Z" fill="#F7F7F7"/>
<path d="M105 407L197.168 457.139C216.388 467.595 240.28 463.405 254.796 447.033L289.07 408.375C304.538 390.928 330.458 387.459 349.97 400.225L369.528 413.021C391.691 427.521 421.451 420.855 435.31 398.288L480.2 325.195C494.056 302.634 523.804 295.965 545.966 310.451L582.843 334.556C598.18 344.581 617.946 344.779 633.481 335.063L745.5 265" stroke="url(#paint1_linear_240_586)" stroke-width="6"/>
<g filter="url(#filter0_d_240_586)">
<circle cx="514.5" cy="305" r="15.5" fill="#1B1B1B"/>
<circle cx="514.5" cy="305" r="14.5" stroke="#71D0C9" stroke-width="2"/>
</g>
<rect width="450" height="165" rx="20" fill="#3B3D3C"/>
<path d="M206.701 72.3778C204.848 72.3778 203.192 72.0585 201.735 71.4197C200.286 70.781 199.139 69.8949 198.294 68.7614C197.457 67.6188 197.007 66.2964 196.944 64.794H201.182C201.236 65.6127 201.51 66.3234 202.005 66.9261C202.508 67.5199 203.165 67.9787 203.975 68.3026C204.785 68.6264 205.684 68.7884 206.674 68.7884C207.762 68.7884 208.725 68.5994 209.562 68.2216C210.407 67.8437 211.068 67.3175 211.545 66.6428C212.022 65.959 212.26 65.1719 212.26 64.2812C212.26 63.3546 212.022 62.5405 211.545 61.8388C211.077 61.1281 210.389 60.5703 209.481 60.1655C208.581 59.7607 207.492 59.5582 206.215 59.5582H203.88V56.1577H206.215C207.241 56.1577 208.14 55.9732 208.914 55.6044C209.696 55.2356 210.308 54.7228 210.749 54.0661C211.19 53.4003 211.41 52.6222 211.41 51.7315C211.41 50.8769 211.217 50.1347 210.83 49.505C210.452 48.8662 209.912 48.367 209.211 48.0071C208.518 47.6473 207.699 47.4673 206.755 47.4673C205.855 47.4673 205.014 47.6338 204.231 47.9666C203.458 48.2905 202.828 48.7583 202.342 49.37C201.856 49.9728 201.595 50.697 201.559 51.5426H197.525C197.57 50.0492 198.01 48.7358 198.847 47.6023C199.693 46.4687 200.808 45.5826 202.194 44.9439C203.579 44.3052 205.117 43.9858 206.809 43.9858C208.581 43.9858 210.11 44.3321 211.397 45.0249C212.692 45.7086 213.691 46.6217 214.392 47.7642C215.103 48.9067 215.454 50.1572 215.445 51.5156C215.454 53.063 215.022 54.3764 214.15 55.456C213.286 56.5355 212.134 57.2597 210.695 57.6286V57.8445C212.53 58.1233 213.952 58.852 214.959 60.0305C215.976 61.209 216.48 62.6709 216.471 64.4162C216.48 65.9366 216.057 67.2995 215.202 68.505C214.357 69.7105 213.2 70.6596 211.734 71.3523C210.268 72.036 208.59 72.3778 206.701 72.3778ZM226.058 68.2216L225.856 69.6925C225.721 70.772 225.492 71.8965 225.168 73.0661C224.853 74.2446 224.524 75.3376 224.183 76.3452C223.85 77.3527 223.575 78.1534 223.359 78.7472H220.499C220.616 78.1894 220.778 77.4337 220.984 76.4801C221.191 75.5355 221.394 74.4785 221.592 73.3089C221.79 72.1394 221.938 70.9474 222.037 69.733L222.172 68.2216H226.058ZM231.928 72L243.992 48.142V47.9396H230.039V44.3636H248.31V48.0611L236.287 72H231.928ZM261.754 72.3778C260.063 72.3778 258.543 72.054 257.193 71.4062C255.853 70.7495 254.782 69.8499 253.981 68.7074C253.181 67.5649 252.753 66.2604 252.699 64.794H256.748C256.847 65.9815 257.373 66.9576 258.327 67.7223C259.28 68.487 260.423 68.8693 261.754 68.8693C262.816 68.8693 263.756 68.6264 264.574 68.1406C265.402 67.6458 266.05 66.9666 266.518 66.103C266.994 65.2393 267.233 64.2543 267.233 63.1477C267.233 62.0232 266.99 61.0201 266.504 60.1385C266.018 59.2569 265.348 58.5642 264.494 58.0604C263.648 57.5566 262.676 57.3002 261.579 57.2912C260.742 57.2912 259.901 57.4351 259.055 57.723C258.21 58.0109 257.526 58.3887 257.004 58.8565L253.185 58.2898L254.737 44.3636H269.932V47.9396H258.205L257.328 55.6719H257.49C258.03 55.1501 258.745 54.7138 259.636 54.3629C260.535 54.0121 261.498 53.8366 262.523 53.8366C264.206 53.8366 265.704 54.237 267.017 55.0376C268.339 55.8383 269.378 56.9313 270.134 58.3168C270.899 59.6932 271.277 61.2765 271.268 63.0668C271.277 64.857 270.872 66.4538 270.053 67.8572C269.244 69.2607 268.119 70.3672 266.68 71.1768C265.249 71.9775 263.607 72.3778 261.754 72.3778ZM285.818 72.4588C283.686 72.4498 281.864 71.8875 280.353 70.772C278.841 69.6565 277.685 68.0327 276.885 65.9006C276.084 63.7685 275.684 61.2 275.684 58.1953C275.684 55.1996 276.084 52.6402 276.885 50.517C277.694 48.3939 278.855 46.7746 280.366 45.6591C281.887 44.5436 283.704 43.9858 285.818 43.9858C287.932 43.9858 289.745 44.5481 291.256 45.6726C292.767 46.7881 293.924 48.4074 294.724 50.5305C295.534 52.6446 295.939 55.1996 295.939 58.1953C295.939 61.209 295.538 63.782 294.738 65.9141C293.937 68.0372 292.781 69.661 291.27 70.7855C289.758 71.901 287.941 72.4588 285.818 72.4588ZM285.818 68.8558C287.689 68.8558 289.151 67.9427 290.204 66.1165C291.265 64.2902 291.796 61.6499 291.796 58.1953C291.796 55.9013 291.553 53.9626 291.067 52.3793C290.59 50.7869 289.902 49.5814 289.003 48.7628C288.112 47.9351 287.05 47.5213 285.818 47.5213C283.956 47.5213 282.494 48.4389 281.432 50.2741C280.371 52.1094 279.835 54.7498 279.826 58.1953C279.826 60.4983 280.065 62.446 280.542 64.0384C281.027 65.6217 281.716 66.8227 282.606 67.6413C283.497 68.451 284.567 68.8558 285.818 68.8558ZM319.311 75.4545V40.9091H321.524V75.4545H319.311ZM326.233 51.6236C326.089 50.3461 325.496 49.3565 324.452 48.6548C323.409 47.9441 322.095 47.5888 320.512 47.5888C319.378 47.5888 318.398 47.7687 317.57 48.1285C316.742 48.4794 316.099 48.9652 315.64 49.5859C315.191 50.1977 314.966 50.8949 314.966 51.6776C314.966 52.3343 315.119 52.901 315.424 53.3778C315.739 53.8546 316.149 54.255 316.652 54.5788C317.165 54.8937 317.714 55.1591 318.299 55.375C318.883 55.5819 319.446 55.7528 319.986 55.8878L322.684 56.5895C323.566 56.8054 324.47 57.0978 325.397 57.4666C326.323 57.8355 327.182 58.3213 327.974 58.924C328.766 59.5268 329.405 60.2734 329.89 61.1641C330.385 62.0547 330.633 63.1207 330.633 64.3622C330.633 65.9276 330.228 67.3175 329.418 68.532C328.617 69.7464 327.452 70.7045 325.923 71.4062C324.403 72.108 322.563 72.4588 320.404 72.4588C318.335 72.4588 316.544 72.1304 315.033 71.4737C313.522 70.817 312.339 69.8859 311.484 68.6804C310.629 67.4659 310.157 66.0265 310.067 64.3622H314.25C314.331 65.3608 314.655 66.1929 315.222 66.8587C315.798 67.5154 316.531 68.0057 317.422 68.3295C318.321 68.6444 319.306 68.8018 320.377 68.8018C321.555 68.8018 322.603 68.6174 323.521 68.2486C324.448 67.8707 325.176 67.349 325.707 66.6832C326.238 66.0085 326.503 65.2214 326.503 64.3217C326.503 63.5031 326.269 62.8329 325.802 62.3111C325.343 61.7893 324.718 61.3575 323.926 61.0156C323.143 60.6738 322.257 60.3724 321.267 60.1115L318.002 59.2209C315.789 58.6181 314.035 57.732 312.739 56.5625C311.453 55.393 310.809 53.8456 310.809 51.9205C310.809 50.3281 311.241 48.9382 312.105 47.7507C312.968 46.5632 314.138 45.6411 315.613 44.9844C317.089 44.3187 318.753 43.9858 320.606 43.9858C322.477 43.9858 324.128 44.3142 325.559 44.9709C326.998 45.6276 328.132 46.5317 328.959 47.6832C329.787 48.8258 330.219 50.1392 330.255 51.6236H326.233Z" fill="#F7F7F7"/>
<path d="M205.627 102.237V103.975H198.059V109.211H204.186V110.883H198.059V116.262H205.627V118H195.914V102.237H205.627ZM217.013 118H216.144C215.954 118 215.8 117.971 215.682 117.912C215.565 117.853 215.488 117.729 215.451 117.538L215.231 116.504C214.938 116.768 214.652 117.006 214.373 117.219C214.095 117.424 213.801 117.6 213.493 117.747C213.185 117.886 212.855 117.993 212.503 118.066C212.159 118.139 211.774 118.176 211.348 118.176C210.916 118.176 210.509 118.117 210.127 118C209.753 117.875 209.427 117.692 209.148 117.45C208.87 117.208 208.646 116.904 208.477 116.537C208.316 116.163 208.235 115.723 208.235 115.217C208.235 114.777 208.356 114.355 208.598 113.952C208.84 113.541 209.229 113.178 209.764 112.863C210.307 112.548 211.015 112.291 211.887 112.093C212.76 111.888 213.827 111.77 215.088 111.741V110.872C215.088 110.007 214.901 109.354 214.527 108.914C214.161 108.467 213.614 108.243 212.888 108.243C212.412 108.243 212.008 108.305 211.678 108.43C211.356 108.547 211.073 108.683 210.831 108.837C210.597 108.984 210.391 109.119 210.215 109.244C210.047 109.361 209.878 109.42 209.709 109.42C209.577 109.42 209.46 109.387 209.357 109.321C209.262 109.248 209.185 109.16 209.126 109.057L208.774 108.43C209.39 107.836 210.054 107.392 210.765 107.099C211.477 106.806 212.265 106.659 213.13 106.659C213.754 106.659 214.307 106.762 214.791 106.967C215.275 107.172 215.682 107.458 216.012 107.825C216.342 108.192 216.592 108.635 216.76 109.156C216.929 109.677 217.013 110.249 217.013 110.872V118ZM211.931 116.801C212.276 116.801 212.591 116.768 212.877 116.702C213.163 116.629 213.431 116.53 213.68 116.405C213.937 116.273 214.179 116.115 214.406 115.932C214.641 115.749 214.868 115.54 215.088 115.305V112.984C214.186 113.013 213.42 113.087 212.789 113.204C212.159 113.314 211.645 113.461 211.249 113.644C210.853 113.827 210.564 114.044 210.38 114.293C210.204 114.542 210.116 114.821 210.116 115.129C210.116 115.422 210.164 115.675 210.259 115.888C210.355 116.101 210.483 116.277 210.644 116.416C210.806 116.548 210.996 116.647 211.216 116.713C211.436 116.772 211.675 116.801 211.931 116.801ZM220.42 118V106.857H221.542C221.754 106.857 221.901 106.897 221.982 106.978C222.062 107.059 222.117 107.198 222.147 107.396L222.279 109.134C222.66 108.357 223.129 107.752 223.687 107.319C224.251 106.879 224.911 106.659 225.667 106.659C225.975 106.659 226.253 106.696 226.503 106.769C226.752 106.835 226.983 106.93 227.196 107.055L226.943 108.518C226.891 108.701 226.778 108.793 226.602 108.793C226.499 108.793 226.341 108.76 226.129 108.694C225.916 108.621 225.619 108.584 225.238 108.584C224.556 108.584 223.984 108.782 223.522 109.178C223.067 109.574 222.686 110.15 222.378 110.905V118H220.42ZM229.733 118V106.857H230.899C231.177 106.857 231.353 106.993 231.427 107.264L231.581 108.474C232.065 107.939 232.604 107.506 233.198 107.176C233.799 106.846 234.492 106.681 235.277 106.681C235.885 106.681 236.421 106.784 236.883 106.989C237.352 107.187 237.741 107.473 238.049 107.847C238.364 108.214 238.602 108.657 238.764 109.178C238.925 109.699 239.006 110.274 239.006 110.905V118H237.048V110.905C237.048 110.062 236.853 109.409 236.465 108.947C236.083 108.478 235.497 108.243 234.705 108.243C234.125 108.243 233.583 108.382 233.077 108.661C232.578 108.94 232.116 109.317 231.691 109.794V118H229.733ZM244.575 106.857V118H242.617V106.857H244.575ZM245.015 103.359C245.015 103.55 244.975 103.729 244.894 103.898C244.821 104.059 244.718 104.206 244.586 104.338C244.462 104.463 244.315 104.562 244.146 104.635C243.978 104.708 243.798 104.745 243.607 104.745C243.417 104.745 243.237 104.708 243.068 104.635C242.907 104.562 242.76 104.463 242.628 104.338C242.504 104.206 242.405 104.059 242.331 103.898C242.258 103.729 242.221 103.55 242.221 103.359C242.221 103.168 242.258 102.989 242.331 102.82C242.405 102.644 242.504 102.494 242.628 102.369C242.76 102.237 242.907 102.134 243.068 102.061C243.237 101.988 243.417 101.951 243.607 101.951C243.798 101.951 243.978 101.988 244.146 102.061C244.315 102.134 244.462 102.237 244.586 102.369C244.718 102.494 244.821 102.644 244.894 102.82C244.975 102.989 245.015 103.168 245.015 103.359ZM248.466 118V106.857H249.632C249.911 106.857 250.087 106.993 250.16 107.264L250.314 108.474C250.798 107.939 251.337 107.506 251.931 107.176C252.532 106.846 253.225 106.681 254.01 106.681C254.619 106.681 255.154 106.784 255.616 106.989C256.085 107.187 256.474 107.473 256.782 107.847C257.097 108.214 257.336 108.657 257.497 109.178C257.658 109.699 257.739 110.274 257.739 110.905V118H255.781V110.905C255.781 110.062 255.587 109.409 255.198 108.947C254.817 108.478 254.23 108.243 253.438 108.243C252.859 108.243 252.316 108.382 251.81 108.661C251.311 108.94 250.849 109.317 250.424 109.794V118H248.466ZM264.882 106.67C265.366 106.67 265.817 106.725 266.235 106.835C266.66 106.938 267.045 107.092 267.39 107.297H270.415V108.023C270.415 108.265 270.261 108.419 269.953 108.485L268.688 108.661C268.937 109.138 269.062 109.669 269.062 110.256C269.062 110.799 268.955 111.294 268.743 111.741C268.537 112.181 268.248 112.559 267.874 112.874C267.507 113.189 267.067 113.431 266.554 113.6C266.048 113.769 265.49 113.853 264.882 113.853C264.361 113.853 263.87 113.791 263.408 113.666C263.173 113.813 262.993 113.97 262.869 114.139C262.751 114.308 262.693 114.473 262.693 114.634C262.693 114.898 262.799 115.1 263.012 115.239C263.224 115.371 263.507 115.466 263.859 115.525C264.211 115.584 264.61 115.62 265.058 115.635C265.505 115.65 265.96 115.675 266.422 115.712C266.891 115.741 267.349 115.796 267.797 115.877C268.244 115.958 268.644 116.09 268.996 116.273C269.348 116.456 269.63 116.709 269.843 117.032C270.055 117.355 270.162 117.773 270.162 118.286C270.162 118.763 270.041 119.225 269.799 119.672C269.564 120.119 269.223 120.515 268.776 120.86C268.328 121.212 267.782 121.491 267.137 121.696C266.491 121.909 265.762 122.015 264.948 122.015C264.134 122.015 263.419 121.934 262.803 121.773C262.194 121.612 261.688 121.395 261.285 121.124C260.881 120.853 260.577 120.537 260.372 120.178C260.174 119.826 260.075 119.456 260.075 119.067C260.075 118.517 260.247 118.051 260.592 117.67C260.944 117.281 261.424 116.973 262.033 116.746C261.717 116.599 261.464 116.405 261.274 116.163C261.09 115.914 260.999 115.584 260.999 115.173C260.999 115.012 261.028 114.847 261.087 114.678C261.145 114.502 261.233 114.33 261.351 114.161C261.475 113.992 261.626 113.831 261.802 113.677C261.978 113.523 262.183 113.387 262.418 113.27C261.868 112.962 261.435 112.555 261.12 112.049C260.812 111.536 260.658 110.938 260.658 110.256C260.658 109.713 260.76 109.222 260.966 108.782C261.178 108.335 261.472 107.957 261.846 107.649C262.22 107.334 262.663 107.092 263.177 106.923C263.697 106.754 264.266 106.67 264.882 106.67ZM268.358 118.605C268.358 118.326 268.281 118.103 268.127 117.934C267.973 117.765 267.764 117.637 267.5 117.549C267.236 117.454 266.931 117.384 266.587 117.34C266.242 117.296 265.879 117.267 265.498 117.252C265.116 117.23 264.728 117.208 264.332 117.186C263.936 117.164 263.558 117.124 263.199 117.065C262.781 117.263 262.44 117.505 262.176 117.791C261.919 118.077 261.791 118.418 261.791 118.814C261.791 119.063 261.853 119.294 261.978 119.507C262.11 119.727 262.308 119.914 262.572 120.068C262.836 120.229 263.166 120.354 263.562 120.442C263.965 120.537 264.438 120.585 264.981 120.585C265.509 120.585 265.982 120.537 266.4 120.442C266.818 120.347 267.17 120.211 267.456 120.035C267.749 119.859 267.973 119.65 268.127 119.408C268.281 119.166 268.358 118.898 268.358 118.605ZM264.882 112.555C265.278 112.555 265.626 112.5 265.927 112.39C266.235 112.28 266.491 112.126 266.697 111.928C266.902 111.73 267.056 111.495 267.159 111.224C267.261 110.945 267.313 110.641 267.313 110.311C267.313 109.629 267.104 109.086 266.686 108.683C266.275 108.28 265.674 108.078 264.882 108.078C264.097 108.078 263.496 108.28 263.078 108.683C262.667 109.086 262.462 109.629 262.462 110.311C262.462 110.641 262.513 110.945 262.616 111.224C262.726 111.495 262.883 111.73 263.089 111.928C263.294 112.126 263.547 112.28 263.848 112.39C264.148 112.5 264.493 112.555 264.882 112.555ZM282.011 106.681C282.825 106.681 283.558 106.817 284.211 107.088C284.871 107.359 285.428 107.744 285.883 108.243C286.345 108.742 286.697 109.347 286.939 110.058C287.188 110.762 287.313 111.55 287.313 112.423C287.313 113.303 287.188 114.095 286.939 114.799C286.697 115.503 286.345 116.104 285.883 116.603C285.428 117.102 284.871 117.487 284.211 117.758C283.558 118.022 282.825 118.154 282.011 118.154C281.197 118.154 280.46 118.022 279.8 117.758C279.147 117.487 278.59 117.102 278.128 116.603C277.666 116.104 277.31 115.503 277.061 114.799C276.812 114.095 276.687 113.303 276.687 112.423C276.687 111.55 276.812 110.762 277.061 110.058C277.31 109.347 277.666 108.742 278.128 108.243C278.59 107.744 279.147 107.359 279.8 107.088C280.46 106.817 281.197 106.681 282.011 106.681ZM282.011 116.625C283.111 116.625 283.932 116.258 284.475 115.525C285.018 114.784 285.289 113.754 285.289 112.434C285.289 111.107 285.018 110.073 284.475 109.332C283.932 108.591 283.111 108.221 282.011 108.221C281.454 108.221 280.97 108.316 280.559 108.507C280.148 108.698 279.804 108.973 279.525 109.332C279.254 109.691 279.048 110.135 278.909 110.663C278.777 111.184 278.711 111.774 278.711 112.434C278.711 113.094 278.777 113.684 278.909 114.205C279.048 114.726 279.254 115.166 279.525 115.525C279.804 115.877 280.148 116.148 280.559 116.339C280.97 116.53 281.454 116.625 282.011 116.625ZM290.606 118V108.529L289.374 108.386C289.22 108.349 289.091 108.294 288.989 108.221C288.893 108.14 288.846 108.027 288.846 107.88V107.077H290.606V105.999C290.606 105.361 290.694 104.796 290.87 104.305C291.053 103.806 291.31 103.388 291.64 103.051C291.977 102.706 292.38 102.446 292.85 102.27C293.319 102.094 293.847 102.006 294.434 102.006C294.932 102.006 295.394 102.079 295.82 102.226L295.776 103.205C295.768 103.352 295.706 103.44 295.589 103.469C295.471 103.498 295.306 103.513 295.094 103.513H294.753C294.415 103.513 294.107 103.557 293.829 103.645C293.557 103.733 293.323 103.876 293.125 104.074C292.927 104.272 292.773 104.532 292.663 104.855C292.56 105.178 292.509 105.577 292.509 106.054V107.077H295.732V108.496H292.575V118H290.606ZM308.949 112.555C308.949 113.435 308.839 114.223 308.619 114.92C308.406 115.617 308.087 116.207 307.662 116.691C307.244 117.168 306.727 117.534 306.111 117.791C305.495 118.048 304.787 118.176 303.988 118.176C303.276 118.176 302.536 118.073 301.766 117.868C301.78 117.655 301.799 117.446 301.821 117.241C301.843 117.028 301.865 116.819 301.887 116.614C301.901 116.489 301.945 116.39 302.019 116.317C302.099 116.236 302.217 116.196 302.371 116.196C302.503 116.196 302.679 116.229 302.899 116.295C303.119 116.361 303.412 116.394 303.779 116.394C304.263 116.394 304.692 116.321 305.066 116.174C305.447 116.027 305.766 115.8 306.023 115.492C306.287 115.184 306.485 114.792 306.617 114.315C306.756 113.831 306.826 113.259 306.826 112.599V102.237H308.949V112.555ZM321.111 118H320.242C320.051 118 319.897 117.971 319.78 117.912C319.663 117.853 319.586 117.729 319.549 117.538L319.329 116.504C319.036 116.768 318.75 117.006 318.471 117.219C318.192 117.424 317.899 117.6 317.591 117.747C317.283 117.886 316.953 117.993 316.601 118.066C316.256 118.139 315.871 118.176 315.446 118.176C315.013 118.176 314.606 118.117 314.225 118C313.851 117.875 313.525 117.692 313.246 117.45C312.967 117.208 312.744 116.904 312.575 116.537C312.414 116.163 312.333 115.723 312.333 115.217C312.333 114.777 312.454 114.355 312.696 113.952C312.938 113.541 313.327 113.178 313.862 112.863C314.405 112.548 315.112 112.291 315.985 112.093C316.858 111.888 317.925 111.77 319.186 111.741V110.872C319.186 110.007 318.999 109.354 318.625 108.914C318.258 108.467 317.712 108.243 316.986 108.243C316.509 108.243 316.106 108.305 315.776 108.43C315.453 108.547 315.171 108.683 314.929 108.837C314.694 108.984 314.489 109.119 314.313 109.244C314.144 109.361 313.976 109.42 313.807 109.42C313.675 109.42 313.558 109.387 313.455 109.321C313.36 109.248 313.283 109.16 313.224 109.057L312.872 108.43C313.488 107.836 314.152 107.392 314.863 107.099C315.574 106.806 316.363 106.659 317.228 106.659C317.851 106.659 318.405 106.762 318.889 106.967C319.373 107.172 319.78 107.458 320.11 107.825C320.44 108.192 320.689 108.635 320.858 109.156C321.027 109.677 321.111 110.249 321.111 110.872V118ZM316.029 116.801C316.374 116.801 316.689 116.768 316.975 116.702C317.261 116.629 317.529 116.53 317.778 116.405C318.035 116.273 318.277 116.115 318.504 115.932C318.739 115.749 318.966 115.54 319.186 115.305V112.984C318.284 113.013 317.518 113.087 316.887 113.204C316.256 113.314 315.743 113.461 315.347 113.644C314.951 113.827 314.661 114.044 314.478 114.293C314.302 114.542 314.214 114.821 314.214 115.129C314.214 115.422 314.262 115.675 314.357 115.888C314.452 116.101 314.581 116.277 314.742 116.416C314.903 116.548 315.094 116.647 315.314 116.713C315.534 116.772 315.772 116.801 316.029 116.801ZM324.517 118V106.857H325.683C325.962 106.857 326.138 106.993 326.211 107.264L326.365 108.474C326.849 107.939 327.388 107.506 327.982 107.176C328.584 106.846 329.277 106.681 330.061 106.681C330.67 106.681 331.205 106.784 331.667 106.989C332.137 107.187 332.525 107.473 332.833 107.847C333.149 108.214 333.387 108.657 333.548 109.178C333.71 109.699 333.79 110.274 333.79 110.905V118H331.832V110.905C331.832 110.062 331.638 109.409 331.249 108.947C330.868 108.478 330.281 108.243 329.489 108.243C328.91 108.243 328.367 108.382 327.861 108.661C327.363 108.94 326.901 109.317 326.475 109.794V118H324.517ZM338.876 106.857V113.963C338.876 114.806 339.07 115.459 339.459 115.921C339.848 116.383 340.434 116.614 341.219 116.614C341.791 116.614 342.33 116.478 342.836 116.207C343.342 115.936 343.808 115.558 344.233 115.074V106.857H346.191V118H345.025C344.746 118 344.57 117.864 344.497 117.593L344.343 116.394C343.859 116.929 343.316 117.362 342.715 117.692C342.114 118.015 341.424 118.176 340.647 118.176C340.038 118.176 339.499 118.077 339.03 117.879C338.568 117.674 338.179 117.388 337.864 117.021C337.549 116.654 337.31 116.211 337.149 115.69C336.995 115.169 336.918 114.594 336.918 113.963V106.857H338.876ZM358.031 118H357.162C356.971 118 356.817 117.971 356.7 117.912C356.582 117.853 356.505 117.729 356.469 117.538L356.249 116.504C355.955 116.768 355.669 117.006 355.391 117.219C355.112 117.424 354.819 117.6 354.511 117.747C354.203 117.886 353.873 117.993 353.521 118.066C353.176 118.139 352.791 118.176 352.366 118.176C351.933 118.176 351.526 118.117 351.145 118C350.771 117.875 350.444 117.692 350.166 117.45C349.887 117.208 349.663 116.904 349.495 116.537C349.333 116.163 349.253 115.723 349.253 115.217C349.253 114.777 349.374 114.355 349.616 113.952C349.858 113.541 350.246 113.178 350.782 112.863C351.324 112.548 352.032 112.291 352.905 112.093C353.777 111.888 354.844 111.77 356.106 111.741V110.872C356.106 110.007 355.919 109.354 355.545 108.914C355.178 108.467 354.632 108.243 353.906 108.243C353.429 108.243 353.026 108.305 352.696 108.43C352.373 108.547 352.091 108.683 351.849 108.837C351.614 108.984 351.409 109.119 351.233 109.244C351.064 109.361 350.895 109.42 350.727 109.42C350.595 109.42 350.477 109.387 350.375 109.321C350.279 109.248 350.202 109.16 350.144 109.057L349.792 108.43C350.408 107.836 351.071 107.392 351.783 107.099C352.494 106.806 353.282 106.659 354.148 106.659C354.771 106.659 355.325 106.762 355.809 106.967C356.293 107.172 356.7 107.458 357.03 107.825C357.36 108.192 357.609 108.635 357.778 109.156C357.946 109.677 358.031 110.249 358.031 110.872V118ZM352.949 116.801C353.293 116.801 353.609 116.768 353.895 116.702C354.181 116.629 354.448 116.53 354.698 116.405C354.954 116.273 355.196 116.115 355.424 115.932C355.658 115.749 355.886 115.54 356.106 115.305V112.984C355.204 113.013 354.437 113.087 353.807 113.204C353.176 113.314 352.663 113.461 352.267 113.644C351.871 113.827 351.581 114.044 351.398 114.293C351.222 114.542 351.134 114.821 351.134 115.129C351.134 115.422 351.181 115.675 351.277 115.888C351.372 116.101 351.5 116.277 351.662 116.416C351.823 116.548 352.014 116.647 352.234 116.713C352.454 116.772 352.692 116.801 352.949 116.801ZM361.437 118V106.857H362.559C362.772 106.857 362.918 106.897 362.999 106.978C363.08 107.059 363.135 107.198 363.164 107.396L363.296 109.134C363.677 108.357 364.147 107.752 364.704 107.319C365.269 106.879 365.929 106.659 366.684 106.659C366.992 106.659 367.271 106.696 367.52 106.769C367.769 106.835 368 106.93 368.213 107.055L367.96 108.518C367.909 108.701 367.795 108.793 367.619 108.793C367.516 108.793 367.359 108.76 367.146 108.694C366.933 108.621 366.636 108.584 366.255 108.584C365.573 108.584 365.001 108.782 364.539 109.178C364.084 109.574 363.703 110.15 363.395 110.905V118H361.437ZM374.017 121.289C373.951 121.436 373.867 121.553 373.764 121.641C373.669 121.729 373.518 121.773 373.313 121.773H371.861L373.896 117.351L369.298 106.857H370.992C371.161 106.857 371.293 106.901 371.388 106.989C371.483 107.07 371.553 107.161 371.597 107.264L374.578 114.282C374.644 114.443 374.699 114.605 374.743 114.766C374.794 114.927 374.838 115.092 374.875 115.261C374.926 115.092 374.978 114.927 375.029 114.766C375.08 114.605 375.139 114.44 375.205 114.271L378.098 107.264C378.142 107.147 378.215 107.051 378.318 106.978C378.428 106.897 378.545 106.857 378.67 106.857H380.232L374.017 121.289Z" fill="#969696"/>
<circle opacity="0.3" cx="114.5" cy="80.5" r="45.5" fill="url(#paint2_linear_240_586)"/>
<path d="M113.459 98.4545V63.9091H115.672V98.4545H113.459ZM120.382 74.6236C120.238 73.3461 119.644 72.3565 118.601 71.6548C117.557 70.9441 116.244 70.5888 114.66 70.5888C113.527 70.5888 112.546 70.7687 111.718 71.1285C110.891 71.4794 110.248 71.9652 109.789 72.5859C109.339 73.1977 109.114 73.8949 109.114 74.6776C109.114 75.3343 109.267 75.901 109.573 76.3778C109.888 76.8546 110.297 77.255 110.801 77.5788C111.314 77.8937 111.862 78.1591 112.447 78.375C113.032 78.5819 113.594 78.7528 114.134 78.8878L116.833 79.5895C117.714 79.8054 118.619 80.0978 119.545 80.4666C120.472 80.8355 121.331 81.3213 122.123 81.924C122.914 82.5268 123.553 83.2734 124.039 84.1641C124.534 85.0547 124.781 86.1207 124.781 87.3622C124.781 88.9276 124.376 90.3175 123.566 91.532C122.766 92.7464 121.601 93.7045 120.071 94.4062C118.551 95.108 116.711 95.4588 114.552 95.4588C112.483 95.4588 110.693 95.1304 109.182 94.4737C107.67 93.817 106.487 92.8859 105.633 91.6804C104.778 90.4659 104.306 89.0265 104.216 87.3622H108.399C108.48 88.3608 108.804 89.1929 109.37 89.8587C109.946 90.5154 110.679 91.0057 111.57 91.3295C112.47 91.6444 113.455 91.8018 114.525 91.8018C115.704 91.8018 116.752 91.6174 117.669 91.2486C118.596 90.8707 119.325 90.349 119.856 89.6832C120.386 89.0085 120.652 88.2214 120.652 87.3217C120.652 86.5031 120.418 85.8329 119.95 85.3111C119.491 84.7893 118.866 84.3575 118.074 84.0156C117.292 83.6738 116.406 83.3724 115.416 83.1115L112.15 82.2209C109.937 81.6181 108.183 80.732 106.888 79.5625C105.601 78.393 104.958 76.8456 104.958 74.9205C104.958 73.3281 105.39 71.9382 106.253 70.7507C107.117 69.5632 108.286 68.6411 109.762 67.9844C111.237 67.3187 112.901 66.9858 114.755 66.9858C116.626 66.9858 118.277 67.3142 119.707 67.9709C121.147 68.6276 122.28 69.5317 123.108 70.6832C123.935 71.8258 124.367 73.1392 124.403 74.6236H120.382Z" fill="#F7F7F7"/>
<defs>
<filter id="filter0_d_240_586" x="465" y="255.5" width="99" height="99" filterUnits="userSpaceOnUse" color-interpolation-filters="sRGB">
<feFlood flood-opacity="0" result="BackgroundImageFix"/>
<feColorMatrix in="SourceAlpha" type="matrix" values="0 0 0 0 0 0 0 0 0 0 0 0 0 0 0 0 0 0 127 0" result="hardAlpha"/>
<feOffset/>
<feGaussianBlur stdDeviation="17"/>
<feComposite in2="hardAlpha" operator="out"/>
<feColorMatrix type="matrix" values="0 0 0 0 1 0 0 0 0 1 0 0 0 0 1 0 0 0 0.15 0"/>
<feBlend mode="normal" in2="BackgroundImageFix" result="effect1_dropShadow_240_586"/>
<feBlend mode="normal" in="SourceGraphic" in2="effect1_dropShadow_240_586" result="shape"/>
</filter>
<linearGradient id="paint0_linear_240_586" x1="575" y1="165" x2="747" y2="165" gradientUnits="userSpaceOnUse">
<stop stop-color="#3FE8AB"/>
<stop offset="1" stop-color="#78CDCD"/>
</linearGradient>
<linearGradient id="paint1_linear_240_586" x1="105" y1="332.294" x2="747" y2="332.294" gradientUnits="userSpaceOnUse">
<stop stop-color="#3FE8AB"/>
<stop offset="1" stop-color="#78CDCD"/>
</linearGradient>
<linearGradient id="paint2_linear_240_586" x1="69" y1="126" x2="160" y2="126" gradientUnits="userSpaceOnUse">
<stop stop-color="#3FE8AB"/>
<stop offset="1" stop-color="#78CDCD"/>
</linearGradient>
</defs>
</svg>
