<svg width="720" height="571" viewBox="0 0 720 571" fill="none" xmlns="http://www.w3.org/2000/svg">
<rect x="136" y="306" width="584" height="265" rx="20" fill="#3B3D3C"/>
<path d="M196.484 474.318V470.767L209.055 450.909H211.854V456.136H210.078L201.087 470.369V470.597H218.317V474.318H196.484ZM210.277 480V473.239L210.305 471.619V450.909H214.467V480H210.277ZM233.423 480.398C232.126 480.379 230.848 480.142 229.588 479.688C228.338 479.233 227.202 478.475 226.179 477.415C225.156 476.354 224.337 474.929 223.722 473.139C223.116 471.349 222.812 469.115 222.812 466.435C222.812 463.897 223.063 461.643 223.565 459.673C224.077 457.704 224.811 456.042 225.767 454.688C226.723 453.324 227.879 452.287 229.233 451.577C230.587 450.866 232.107 450.511 233.793 450.511C235.526 450.511 237.064 450.852 238.409 451.534C239.754 452.216 240.843 453.158 241.676 454.361C242.519 455.563 243.054 456.932 243.281 458.466H238.949C238.655 457.254 238.073 456.264 237.202 455.497C236.33 454.73 235.194 454.347 233.793 454.347C231.662 454.347 230 455.275 228.807 457.131C227.623 458.987 227.027 461.567 227.017 464.872H227.23C227.732 464.048 228.348 463.348 229.077 462.77C229.815 462.183 230.639 461.733 231.548 461.42C232.467 461.098 233.433 460.938 234.446 460.938C236.132 460.938 237.656 461.349 239.02 462.173C240.393 462.988 241.487 464.115 242.301 465.554C243.116 466.993 243.523 468.641 243.523 470.497C243.523 472.353 243.101 474.034 242.259 475.54C241.425 477.045 240.251 478.239 238.736 479.119C237.221 479.991 235.45 480.417 233.423 480.398ZM233.409 476.705C234.527 476.705 235.526 476.43 236.406 475.881C237.287 475.331 237.983 474.593 238.494 473.665C239.006 472.737 239.261 471.7 239.261 470.554C239.261 469.437 239.01 468.419 238.509 467.5C238.016 466.581 237.334 465.852 236.463 465.312C235.601 464.773 234.616 464.503 233.509 464.503C232.666 464.503 231.884 464.664 231.165 464.986C230.455 465.308 229.83 465.753 229.29 466.321C228.75 466.889 228.324 467.543 228.011 468.281C227.708 469.01 227.557 469.782 227.557 470.597C227.557 471.686 227.808 472.694 228.31 473.622C228.821 474.55 229.517 475.298 230.398 475.866C231.288 476.425 232.292 476.705 233.409 476.705ZM258.299 480.398C256.519 480.398 254.918 480.057 253.498 479.375C252.087 478.684 250.96 477.737 250.117 476.534C249.274 475.331 248.825 473.958 248.768 472.415H253.029C253.133 473.665 253.687 474.692 254.691 475.497C255.695 476.302 256.897 476.705 258.299 476.705C259.416 476.705 260.406 476.449 261.268 475.938C262.139 475.417 262.821 474.702 263.313 473.793C263.815 472.884 264.066 471.847 264.066 470.682C264.066 469.498 263.81 468.442 263.299 467.514C262.788 466.586 262.082 465.857 261.183 465.327C260.292 464.796 259.27 464.527 258.114 464.517C257.234 464.517 256.348 464.669 255.458 464.972C254.568 465.275 253.848 465.672 253.299 466.165L249.279 465.568L250.913 450.909H266.907V454.673H254.563L253.64 462.812H253.81C254.379 462.263 255.131 461.804 256.069 461.435C257.016 461.065 258.029 460.881 259.109 460.881C260.879 460.881 262.456 461.302 263.839 462.145C265.231 462.988 266.325 464.138 267.12 465.597C267.925 467.045 268.323 468.712 268.313 470.597C268.323 472.481 267.897 474.162 267.035 475.639C266.183 477.116 264.999 478.281 263.484 479.134C261.978 479.976 260.25 480.398 258.299 480.398Z" fill="#F7F7F7"/>
<path d="M195.815 510V508.409L200.737 503.31C201.263 502.756 201.696 502.27 202.037 501.854C202.382 501.432 202.64 501.032 202.811 500.653C202.981 500.275 203.067 499.872 203.067 499.446C203.067 498.963 202.953 498.546 202.726 498.196C202.498 497.841 202.188 497.569 201.795 497.379C201.402 497.185 200.96 497.088 200.467 497.088C199.946 497.088 199.492 497.195 199.104 497.408C198.715 497.621 198.417 497.921 198.209 498.31C198 498.698 197.896 499.152 197.896 499.673H195.801C195.801 498.788 196.005 498.014 196.412 497.351C196.819 496.688 197.378 496.174 198.088 495.81C198.798 495.44 199.605 495.256 200.51 495.256C201.424 495.256 202.229 495.438 202.925 495.803C203.625 496.162 204.172 496.655 204.565 497.28C204.958 497.9 205.155 498.601 205.155 499.382C205.155 499.922 205.053 500.45 204.849 500.966C204.65 501.482 204.302 502.057 203.805 502.692C203.308 503.321 202.617 504.086 201.731 504.986L198.841 508.011V508.118H205.389V510H195.815ZM213.145 510.241C212.023 510.237 211.064 509.941 210.268 509.354C209.473 508.767 208.864 507.912 208.443 506.79C208.022 505.668 207.811 504.316 207.811 502.734C207.811 501.158 208.022 499.811 208.443 498.693C208.869 497.576 209.48 496.723 210.275 496.136C211.076 495.549 212.032 495.256 213.145 495.256C214.257 495.256 215.211 495.552 216.007 496.143C216.802 496.731 217.411 497.583 217.832 498.7C218.258 499.813 218.471 501.158 218.471 502.734C218.471 504.321 218.261 505.675 217.839 506.797C217.418 507.914 216.809 508.769 216.014 509.361C215.219 509.948 214.262 510.241 213.145 510.241ZM213.145 508.345C214.13 508.345 214.899 507.865 215.453 506.903C216.012 505.942 216.291 504.553 216.291 502.734C216.291 501.527 216.163 500.507 215.907 499.673C215.657 498.835 215.294 498.201 214.821 497.77C214.352 497.334 213.793 497.116 213.145 497.116C212.165 497.116 211.395 497.599 210.836 498.565C210.278 499.531 209.996 500.921 209.991 502.734C209.991 503.946 210.117 504.972 210.368 505.81C210.623 506.643 210.986 507.275 211.454 507.706C211.923 508.132 212.487 508.345 213.145 508.345ZM221.891 510.135C221.503 510.135 221.169 509.998 220.89 509.723C220.61 509.444 220.471 509.107 220.471 508.714C220.471 508.326 220.61 507.995 220.89 507.72C221.169 507.441 221.503 507.301 221.891 507.301C222.279 507.301 222.613 507.441 222.893 507.72C223.172 507.995 223.312 508.326 223.312 508.714C223.312 508.975 223.245 509.214 223.113 509.432C222.985 509.645 222.814 509.815 222.601 509.943C222.388 510.071 222.152 510.135 221.891 510.135ZM230.664 510.241C229.542 510.237 228.583 509.941 227.788 509.354C226.992 508.767 226.384 507.912 225.963 506.79C225.541 505.668 225.33 504.316 225.33 502.734C225.33 501.158 225.541 499.811 225.963 498.693C226.389 497.576 226.999 496.723 227.795 496.136C228.595 495.549 229.552 495.256 230.664 495.256C231.777 495.256 232.731 495.552 233.526 496.143C234.322 496.731 234.93 497.583 235.352 498.7C235.778 499.813 235.991 501.158 235.991 502.734C235.991 504.321 235.78 505.675 235.359 506.797C234.937 507.914 234.329 508.769 233.534 509.361C232.738 509.948 231.782 510.241 230.664 510.241ZM230.664 508.345C231.649 508.345 232.419 507.865 232.972 506.903C233.531 505.942 233.811 504.553 233.811 502.734C233.811 501.527 233.683 500.507 233.427 499.673C233.176 498.835 232.814 498.201 232.34 497.77C231.872 497.334 231.313 497.116 230.664 497.116C229.684 497.116 228.915 497.599 228.356 498.565C227.797 499.531 227.516 500.921 227.511 502.734C227.511 503.946 227.636 504.972 227.887 505.81C228.143 506.643 228.505 507.275 228.974 507.706C229.443 508.132 230.006 508.345 230.664 508.345ZM243.574 510.241C242.452 510.237 241.493 509.941 240.698 509.354C239.903 508.767 239.294 507.912 238.873 506.79C238.451 505.668 238.241 504.316 238.241 502.734C238.241 501.158 238.451 499.811 238.873 498.693C239.299 497.576 239.91 496.723 240.705 496.136C241.505 495.549 242.462 495.256 243.574 495.256C244.687 495.256 245.641 495.552 246.437 496.143C247.232 496.731 247.84 497.583 248.262 498.7C248.688 499.813 248.901 501.158 248.901 502.734C248.901 504.321 248.69 505.675 248.269 506.797C247.848 507.914 247.239 508.769 246.444 509.361C245.648 509.948 244.692 510.241 243.574 510.241ZM243.574 508.345C244.559 508.345 245.329 507.865 245.883 506.903C246.441 505.942 246.721 504.553 246.721 502.734C246.721 501.527 246.593 500.507 246.337 499.673C246.086 498.835 245.724 498.201 245.251 497.77C244.782 497.334 244.223 497.116 243.574 497.116C242.594 497.116 241.825 497.599 241.266 498.565C240.707 499.531 240.426 500.921 240.421 502.734C240.421 503.946 240.546 504.972 240.797 505.81C241.053 506.643 241.415 507.275 241.884 507.706C242.353 508.132 242.916 508.345 243.574 508.345ZM259.013 507.273V506.506C259.013 505.956 259.127 505.455 259.354 505C259.586 504.541 259.922 504.174 260.362 503.899C260.807 503.62 261.345 503.48 261.975 503.48C262.619 503.48 263.158 503.617 263.594 503.892C264.03 504.167 264.359 504.534 264.581 504.993C264.808 505.452 264.922 505.956 264.922 506.506V507.273C264.922 507.822 264.808 508.326 264.581 508.786C264.354 509.24 264.02 509.607 263.58 509.886C263.144 510.161 262.609 510.298 261.975 510.298C261.335 510.298 260.796 510.161 260.355 509.886C259.915 509.607 259.581 509.24 259.354 508.786C259.127 508.326 259.013 507.822 259.013 507.273ZM260.668 506.506V507.273C260.668 507.68 260.765 508.049 260.959 508.381C261.153 508.712 261.492 508.878 261.975 508.878C262.453 508.878 262.787 508.712 262.976 508.381C263.165 508.049 263.26 507.68 263.26 507.273V506.506C263.26 506.098 263.168 505.729 262.983 505.398C262.803 505.066 262.467 504.901 261.975 504.901C261.501 504.901 261.165 505.066 260.966 505.398C260.767 505.729 260.668 506.098 260.668 506.506ZM251.698 498.949V498.182C251.698 497.633 251.811 497.128 252.039 496.669C252.271 496.21 252.607 495.843 253.047 495.568C253.492 495.294 254.03 495.156 254.659 495.156C255.303 495.156 255.843 495.294 256.279 495.568C256.714 495.843 257.043 496.21 257.266 496.669C257.488 497.128 257.6 497.633 257.6 498.182V498.949C257.6 499.498 257.486 500.002 257.259 500.462C257.036 500.916 256.705 501.283 256.264 501.562C255.829 501.837 255.294 501.974 254.659 501.974C254.015 501.974 253.473 501.837 253.033 501.562C252.597 501.283 252.266 500.916 252.039 500.462C251.811 500.002 251.698 499.498 251.698 498.949ZM253.36 498.182V498.949C253.36 499.356 253.454 499.725 253.644 500.057C253.838 500.388 254.176 500.554 254.659 500.554C255.133 500.554 255.464 500.388 255.654 500.057C255.848 499.725 255.945 499.356 255.945 498.949V498.182C255.945 497.775 255.852 497.405 255.668 497.074C255.483 496.742 255.147 496.577 254.659 496.577C254.186 496.577 253.85 496.742 253.651 497.074C253.457 497.405 253.36 497.775 253.36 498.182ZM252.372 510L262.372 495.455H264.07L254.07 510H252.372Z" fill="#F7F7F7"/>
<rect x="194" y="367" width="172" height="47" rx="10" fill="url(#paint0_linear_240_606)"/>
<path d="M243.541 385.92V396H242.708C242.582 396 242.475 395.979 242.386 395.937C242.297 395.89 242.213 395.816 242.134 395.713L236.597 388.601C236.611 388.736 236.62 388.872 236.625 389.007C236.634 389.138 236.639 389.259 236.639 389.371V396H235.197V385.92H236.051C236.121 385.92 236.179 385.925 236.226 385.934C236.277 385.939 236.324 385.95 236.366 385.969C236.408 385.988 236.448 386.016 236.485 386.053C236.522 386.09 236.562 386.137 236.604 386.193L242.148 393.312C242.134 393.167 242.122 393.025 242.113 392.885C242.108 392.745 242.106 392.614 242.106 392.493V385.92H243.541ZM253.636 394.677L253.629 396H247.343V385.92H253.629V387.243H248.988V390.281H252.698V391.562H248.988V394.677H253.636ZM270.061 385.92L266.924 396H265.447L263.081 388.762C263.053 388.683 263.025 388.596 262.997 388.503C262.974 388.41 262.951 388.309 262.927 388.202C262.904 388.309 262.878 388.41 262.85 388.503C262.827 388.596 262.801 388.683 262.773 388.762L260.386 396H258.909L255.773 385.92H257.145C257.285 385.92 257.402 385.955 257.495 386.025C257.593 386.09 257.659 386.181 257.691 386.298L259.581 392.759C259.619 392.899 259.654 393.051 259.686 393.214C259.719 393.377 259.752 393.548 259.784 393.725C259.817 393.548 259.852 393.377 259.889 393.214C259.931 393.046 259.976 392.894 260.022 392.759L262.185 386.298C262.218 386.205 262.283 386.118 262.381 386.039C262.479 385.96 262.596 385.92 262.731 385.92H263.207C263.352 385.92 263.469 385.957 263.558 386.032C263.646 386.102 263.714 386.191 263.76 386.298L265.917 392.759C265.963 392.894 266.005 393.041 266.043 393.2C266.084 393.354 266.122 393.517 266.154 393.69C266.187 393.517 266.217 393.354 266.245 393.2C266.278 393.041 266.313 392.894 266.35 392.759L268.233 386.298C268.262 386.195 268.324 386.107 268.422 386.032C268.525 385.957 268.644 385.92 268.779 385.92H270.061ZM283.398 394.628V396H277.574V385.92H279.212V394.628H283.398ZM292.5 394.677L292.493 396H286.207V385.92H292.493V387.243H287.852V390.281H291.562V391.562H287.852V394.677H292.5ZM301.007 392.22L299.621 388.538C299.509 388.253 299.395 387.892 299.278 387.453C299.227 387.672 299.171 387.875 299.11 388.062C299.05 388.244 298.994 388.405 298.942 388.545L297.556 392.22H301.007ZM304.108 396H302.841C302.697 396 302.58 395.965 302.491 395.895C302.403 395.82 302.335 395.729 302.288 395.622L301.448 393.396H297.108L296.268 395.622C296.231 395.715 296.166 395.802 296.072 395.881C295.979 395.96 295.862 396 295.722 396H294.455L298.452 385.92H300.111L304.108 396ZM315.533 390.96C315.533 391.707 315.411 392.39 315.169 393.011C314.926 393.627 314.583 394.157 314.14 394.6C313.701 395.043 313.171 395.389 312.551 395.636C311.935 395.879 311.249 396 310.493 396H306.685V385.92H310.493C311.249 385.92 311.935 386.044 312.551 386.291C313.171 386.534 313.701 386.877 314.14 387.32C314.583 387.763 314.926 388.295 315.169 388.916C315.411 389.532 315.533 390.213 315.533 390.96ZM313.86 390.96C313.86 390.381 313.78 389.861 313.622 389.399C313.468 388.937 313.244 388.547 312.95 388.23C312.66 387.913 312.308 387.67 311.893 387.502C311.477 387.329 311.011 387.243 310.493 387.243H308.33V394.677H310.493C311.011 394.677 311.477 394.593 311.893 394.425C312.308 394.257 312.66 394.014 312.95 393.697C313.244 393.375 313.468 392.985 313.622 392.528C313.78 392.066 313.86 391.543 313.86 390.96ZM324.006 387.642C323.955 387.726 323.901 387.789 323.845 387.831C323.789 387.868 323.719 387.887 323.635 387.887C323.546 387.887 323.446 387.85 323.334 387.775C323.227 387.7 323.091 387.619 322.928 387.53C322.769 387.437 322.58 387.353 322.361 387.278C322.142 387.199 321.88 387.159 321.577 387.159C321.297 387.159 321.05 387.194 320.835 387.264C320.625 387.334 320.448 387.432 320.303 387.558C320.158 387.684 320.049 387.833 319.974 388.006C319.904 388.174 319.869 388.358 319.869 388.559C319.869 388.816 319.937 389.03 320.072 389.203C320.207 389.371 320.385 389.516 320.604 389.637C320.828 389.758 321.082 389.866 321.367 389.959C321.652 390.048 321.941 390.143 322.235 390.246C322.534 390.349 322.825 390.465 323.11 390.596C323.395 390.727 323.647 390.892 323.866 391.093C324.09 391.294 324.27 391.539 324.405 391.828C324.54 392.117 324.608 392.47 324.608 392.885C324.608 393.333 324.531 393.753 324.377 394.145C324.223 394.537 323.999 394.88 323.705 395.174C323.416 395.463 323.056 395.692 322.627 395.86C322.202 396.028 321.717 396.112 321.171 396.112C320.849 396.112 320.534 396.079 320.226 396.014C319.923 395.953 319.631 395.867 319.351 395.755C319.076 395.638 318.817 395.498 318.574 395.335C318.331 395.172 318.114 394.99 317.923 394.789L318.399 394.005C318.441 393.94 318.495 393.888 318.56 393.851C318.625 393.814 318.698 393.795 318.777 393.795C318.884 393.795 319.003 393.846 319.134 393.949C319.265 394.047 319.421 394.157 319.603 394.278C319.79 394.395 320.014 394.504 320.275 394.607C320.536 394.705 320.849 394.754 321.213 394.754C321.806 394.754 322.263 394.609 322.585 394.32C322.912 394.031 323.075 393.632 323.075 393.123C323.075 392.838 323.007 392.607 322.872 392.43C322.737 392.248 322.557 392.096 322.333 391.975C322.114 391.854 321.862 391.751 321.577 391.667C321.292 391.583 321.003 391.494 320.709 391.401C320.415 391.303 320.126 391.191 319.841 391.065C319.556 390.934 319.302 390.766 319.078 390.561C318.859 390.351 318.681 390.094 318.546 389.791C318.411 389.483 318.343 389.1 318.343 388.643C318.343 388.279 318.413 387.927 318.553 387.586C318.698 387.245 318.905 386.944 319.176 386.683C319.451 386.417 319.79 386.205 320.191 386.046C320.592 385.887 321.05 385.808 321.563 385.808C322.142 385.808 322.671 385.899 323.152 386.081C323.637 386.263 324.055 386.522 324.405 386.858L324.006 387.642Z" fill="#111111"/>
<path d="M369.5 479.5L372.052 479.899C379.674 481.09 386.95 476.284 388.846 468.806V468.806C392.654 453.793 413.977 453.771 417.814 468.778L419.21 474.235C422.702 487.888 440.659 491.053 448.607 479.416L463.472 457.654C464.273 456.48 464.984 455.247 465.599 453.965L480.346 423.205C481.096 421.641 482.018 420.165 483.094 418.804L491.525 408.154C499.168 398.498 514.436 400.948 518.675 412.51V412.51C520.573 417.688 525.04 421.496 530.452 422.552L546.392 425.663C549.645 426.297 552.402 428.44 553.82 431.436V431.436C558.273 440.84 572.241 438.64 573.586 428.322L580.785 373.101C581.697 366.105 586.379 360.177 592.972 357.667V357.667C606.052 352.689 619.884 362.955 618.907 376.916L618.702 379.849C617.247 400.637 643.655 410.667 656.368 394.155L671.5 374.5" stroke="url(#paint1_linear_240_606)" stroke-width="6"/>
<rect width="667" height="340" rx="20" fill="#2A2C2B"/>
<path d="M71.6719 290.276C71.5961 289.603 71.2836 289.082 70.7344 288.713C70.1851 288.339 69.4938 288.152 68.6605 288.152C68.0639 288.152 67.5478 288.247 67.1122 288.436C66.6766 288.621 66.3381 288.876 66.0966 289.203C65.8598 289.525 65.7415 289.892 65.7415 290.304C65.7415 290.65 65.822 290.948 65.983 291.199C66.1487 291.45 66.3641 291.661 66.6293 291.831C66.8991 291.997 67.188 292.136 67.4957 292.25C67.8035 292.359 68.0994 292.449 68.3835 292.52L69.804 292.889C70.268 293.003 70.7438 293.157 71.2315 293.351C71.7192 293.545 72.1714 293.801 72.5881 294.118C73.0047 294.435 73.3409 294.828 73.5966 295.297C73.857 295.766 73.9872 296.327 73.9872 296.98C73.9872 297.804 73.7741 298.536 73.348 299.175C72.9266 299.814 72.3134 300.318 71.5085 300.688C70.7083 301.057 69.7401 301.241 68.6037 301.241C67.5147 301.241 66.5724 301.069 65.777 300.723C64.9815 300.377 64.3589 299.887 63.9091 299.253C63.4593 298.614 63.2107 297.856 63.1634 296.98H65.3651C65.4077 297.506 65.5781 297.944 65.8764 298.294C66.1795 298.64 66.5653 298.898 67.0341 299.068C67.5076 299.234 68.026 299.317 68.5895 299.317C69.2098 299.317 69.7614 299.22 70.2443 299.026C70.732 298.827 71.1155 298.552 71.3949 298.202C71.6742 297.847 71.8139 297.432 71.8139 296.959C71.8139 296.528 71.6908 296.175 71.4446 295.901C71.2031 295.626 70.8741 295.399 70.4574 295.219C70.0455 295.039 69.5791 294.88 69.0582 294.743L67.3395 294.274C66.1747 293.957 65.2514 293.491 64.5696 292.875C63.8925 292.259 63.554 291.445 63.554 290.432C63.554 289.594 63.7813 288.862 64.2358 288.237C64.6903 287.612 65.3059 287.127 66.0824 286.781C66.8589 286.431 67.7348 286.256 68.7102 286.256C69.6951 286.256 70.5639 286.429 71.3168 286.774C72.0743 287.12 72.6709 287.596 73.1065 288.202C73.5421 288.803 73.7694 289.494 73.7884 290.276H71.6719ZM83.3498 296.476V290.091H85.4805V301H83.3924V299.111H83.2788C83.0278 299.693 82.6254 300.179 82.0714 300.567C81.5221 300.95 80.8379 301.142 80.0188 301.142C79.3181 301.142 78.6978 300.988 78.158 300.68C77.623 300.368 77.2016 299.906 76.8938 299.295C76.5908 298.685 76.4393 297.929 76.4393 297.03V290.091H78.5629V296.774C78.5629 297.518 78.7688 298.109 79.1808 298.55C79.5927 298.99 80.1277 299.21 80.7859 299.21C81.1836 299.21 81.579 299.111 81.9719 298.912C82.3697 298.713 82.6987 298.412 82.9592 298.01C83.2243 297.607 83.3545 297.096 83.3498 296.476ZM90.4574 294.523V301H88.3338V290.091H90.3722V291.866H90.5071C90.758 291.289 91.151 290.825 91.6861 290.474C92.2259 290.124 92.9053 289.949 93.7244 289.949C94.4678 289.949 95.1188 290.105 95.6776 290.418C96.2363 290.725 96.6695 291.185 96.9773 291.795C97.285 292.406 97.4389 293.161 97.4389 294.061V301H95.3153V294.317C95.3153 293.526 95.1094 292.908 94.6974 292.463C94.2855 292.013 93.7197 291.788 93 291.788C92.5076 291.788 92.0696 291.895 91.6861 292.108C91.3073 292.321 91.0066 292.634 90.7841 293.045C90.5663 293.453 90.4574 293.945 90.4574 294.523Z" fill="#F7F7F7"/>
<path d="M166.621 286.455H169.285L173.915 297.761H174.086L178.717 286.455H181.38V301H179.292V290.474H179.157L174.867 300.979H173.134L168.844 290.467H168.71V301H166.621V286.455ZM188.995 301.22C187.973 301.22 187.08 300.986 186.318 300.517C185.556 300.048 184.964 299.393 184.542 298.55C184.121 297.707 183.91 296.722 183.91 295.595C183.91 294.464 184.121 293.474 184.542 292.626C184.964 291.779 185.556 291.121 186.318 290.652C187.08 290.183 187.973 289.949 188.995 289.949C190.018 289.949 190.911 290.183 191.673 290.652C192.435 291.121 193.027 291.779 193.449 292.626C193.87 293.474 194.081 294.464 194.081 295.595C194.081 296.722 193.87 297.707 193.449 298.55C193.027 299.393 192.435 300.048 191.673 300.517C190.911 300.986 190.018 301.22 188.995 301.22ZM189.002 299.438C189.665 299.438 190.215 299.262 190.65 298.912C191.086 298.562 191.408 298.095 191.616 297.513C191.829 296.93 191.936 296.289 191.936 295.588C191.936 294.892 191.829 294.253 191.616 293.67C191.408 293.083 191.086 292.612 190.65 292.257C190.215 291.902 189.665 291.724 189.002 291.724C188.335 291.724 187.781 291.902 187.341 292.257C186.905 292.612 186.581 293.083 186.368 293.67C186.159 294.253 186.055 294.892 186.055 295.588C186.055 296.289 186.159 296.93 186.368 297.513C186.581 298.095 186.905 298.562 187.341 298.912C187.781 299.262 188.335 299.438 189.002 299.438ZM198.575 294.523V301H196.451V290.091H198.489V291.866H198.624C198.875 291.289 199.268 290.825 199.803 290.474C200.343 290.124 201.022 289.949 201.842 289.949C202.585 289.949 203.236 290.105 203.795 290.418C204.353 290.725 204.787 291.185 205.094 291.795C205.402 292.406 205.556 293.161 205.556 294.061V301H203.433V294.317C203.433 293.526 203.227 292.908 202.815 292.463C202.403 292.013 201.837 291.788 201.117 291.788C200.625 291.788 200.187 291.895 199.803 292.108C199.424 292.321 199.124 292.634 198.901 293.045C198.683 293.453 198.575 293.945 198.575 294.523Z" fill="#F7F7F7"/>
<path d="M274.293 288.344V286.455H285.55V288.344H281.012V301H278.824V288.344H274.293ZM293.293 296.476V290.091H295.424V301H293.336V299.111H293.222C292.971 299.693 292.569 300.179 292.015 300.567C291.465 300.95 290.781 301.142 289.962 301.142C289.261 301.142 288.641 300.988 288.101 300.68C287.566 300.368 287.145 299.906 286.837 299.295C286.534 298.685 286.383 297.929 286.383 297.03V290.091H288.506V296.774C288.506 297.518 288.712 298.109 289.124 298.55C289.536 298.99 290.071 299.21 290.729 299.21C291.127 299.21 291.522 299.111 291.915 298.912C292.313 298.713 292.642 298.412 292.903 298.01C293.168 297.607 293.298 297.096 293.293 296.476ZM302.979 301.22C301.904 301.22 300.978 300.991 300.202 300.531C299.43 300.067 298.834 299.416 298.412 298.578C297.995 297.735 297.787 296.748 297.787 295.616C297.787 294.499 297.995 293.514 298.412 292.662C298.834 291.81 299.421 291.144 300.173 290.666C300.931 290.188 301.816 289.949 302.83 289.949C303.445 289.949 304.042 290.051 304.619 290.254C305.197 290.458 305.716 290.777 306.175 291.213C306.634 291.649 306.996 292.214 307.262 292.911C307.527 293.602 307.659 294.442 307.659 295.432V296.185H298.987V294.594H305.578C305.578 294.035 305.465 293.54 305.237 293.109C305.01 292.674 304.691 292.33 304.279 292.08C303.871 291.829 303.393 291.703 302.844 291.703C302.247 291.703 301.727 291.85 301.281 292.143C300.841 292.432 300.5 292.811 300.259 293.28C300.022 293.744 299.904 294.248 299.904 294.793V296.036C299.904 296.765 300.031 297.385 300.287 297.896C300.548 298.408 300.91 298.798 301.374 299.068C301.838 299.333 302.38 299.466 303 299.466C303.403 299.466 303.77 299.409 304.101 299.295C304.432 299.177 304.719 299.002 304.96 298.77C305.202 298.538 305.387 298.251 305.514 297.911L307.524 298.273C307.363 298.865 307.075 299.383 306.658 299.828C306.246 300.268 305.727 300.612 305.102 300.858C304.482 301.099 303.774 301.22 302.979 301.22Z" fill="#F7F7F7"/>
<path d="M379.579 301L375.545 286.455H377.853L380.687 297.719H380.822L383.769 286.455H386.056L389.004 297.726H389.138L391.965 286.455H394.281L390.239 301H388.031L384.969 290.105H384.856L381.795 301H379.579ZM399.739 301.22C398.664 301.22 397.738 300.991 396.962 300.531C396.19 300.067 395.593 299.416 395.172 298.578C394.755 297.735 394.547 296.748 394.547 295.616C394.547 294.499 394.755 293.514 395.172 292.662C395.593 291.81 396.18 291.144 396.933 290.666C397.691 290.188 398.576 289.949 399.589 289.949C400.205 289.949 400.802 290.051 401.379 290.254C401.957 290.458 402.475 290.777 402.935 291.213C403.394 291.649 403.756 292.214 404.021 292.911C404.286 293.602 404.419 294.442 404.419 295.432V296.185H395.747V294.594H402.338C402.338 294.035 402.224 293.54 401.997 293.109C401.77 292.674 401.45 292.33 401.038 292.08C400.631 291.829 400.153 291.703 399.604 291.703C399.007 291.703 398.486 291.85 398.041 292.143C397.601 292.432 397.26 292.811 397.018 293.28C396.782 293.744 396.663 294.248 396.663 294.793V296.036C396.663 296.765 396.791 297.385 397.047 297.896C397.307 298.408 397.67 298.798 398.134 299.068C398.598 299.333 399.14 299.466 399.76 299.466C400.162 299.466 400.529 299.409 400.861 299.295C401.192 299.177 401.479 299.002 401.72 298.77C401.962 298.538 402.146 298.251 402.274 297.911L404.284 298.273C404.123 298.865 403.834 299.383 403.418 299.828C403.006 300.268 402.487 300.612 401.862 300.858C401.242 301.099 400.534 301.22 399.739 301.22ZM410.859 301.213C409.978 301.213 409.192 300.988 408.501 300.538C407.815 300.084 407.275 299.437 406.882 298.599C406.493 297.757 406.299 296.746 406.299 295.567C406.299 294.388 406.496 293.379 406.889 292.541C407.287 291.703 407.831 291.062 408.522 290.616C409.214 290.171 409.997 289.949 410.873 289.949C411.55 289.949 412.095 290.062 412.507 290.29C412.923 290.512 413.245 290.773 413.473 291.071C413.705 291.369 413.885 291.632 414.012 291.859H414.14V286.455H416.264V301H414.19V299.303H414.012C413.885 299.535 413.7 299.8 413.458 300.098C413.222 300.396 412.895 300.657 412.478 300.879C412.062 301.102 411.522 301.213 410.859 301.213ZM411.328 299.402C411.939 299.402 412.455 299.241 412.876 298.919C413.302 298.592 413.624 298.14 413.842 297.562C414.065 296.985 414.176 296.312 414.176 295.545C414.176 294.788 414.067 294.125 413.849 293.557C413.631 292.989 413.312 292.546 412.89 292.229C412.469 291.911 411.948 291.753 411.328 291.753C410.689 291.753 410.156 291.919 409.73 292.25C409.304 292.581 408.982 293.034 408.764 293.607C408.551 294.179 408.444 294.826 408.444 295.545C408.444 296.275 408.553 296.93 408.771 297.513C408.989 298.095 409.311 298.557 409.737 298.898C410.168 299.234 410.698 299.402 411.328 299.402Z" fill="#F7F7F7"/>
<path d="M484.904 288.344V286.455H496.161V288.344H491.623V301H489.435V288.344H484.904ZM500.602 294.523V301H498.478V286.455H500.574V291.866H500.708C500.964 291.279 501.355 290.813 501.88 290.467C502.406 290.122 503.092 289.949 503.94 289.949C504.688 289.949 505.342 290.103 505.9 290.411C506.464 290.718 506.899 291.178 507.207 291.788C507.52 292.394 507.676 293.152 507.676 294.061V301H505.552V294.317C505.552 293.517 505.346 292.896 504.934 292.456C504.522 292.011 503.949 291.788 503.216 291.788C502.714 291.788 502.264 291.895 501.866 292.108C501.473 292.321 501.163 292.634 500.936 293.045C500.713 293.453 500.602 293.945 500.602 294.523ZM517.42 296.476V290.091H519.551V301H517.463V299.111H517.349C517.098 299.693 516.696 300.179 516.142 300.567C515.592 300.95 514.908 301.142 514.089 301.142C513.388 301.142 512.768 300.988 512.228 300.68C511.693 300.368 511.272 299.906 510.964 299.295C510.661 298.685 510.51 297.929 510.51 297.03V290.091H512.633V296.774C512.633 297.518 512.839 298.109 513.251 298.55C513.663 298.99 514.198 299.21 514.856 299.21C515.254 299.21 515.649 299.111 516.042 298.912C516.44 298.713 516.769 298.412 517.029 298.01C517.295 297.607 517.425 297.096 517.42 296.476Z" fill="#F7F7F7"/>
<path d="M588.979 301V286.455H597.999V288.344H591.173V292.776H597.352V294.658H591.173V301H588.979ZM600.39 301V290.091H602.443V291.824H602.557C602.756 291.237 603.106 290.775 603.608 290.439C604.114 290.098 604.687 289.928 605.327 289.928C605.459 289.928 605.615 289.932 605.795 289.942C605.98 289.951 606.124 289.963 606.229 289.977V292.009C606.143 291.985 605.992 291.959 605.774 291.93C605.556 291.897 605.338 291.881 605.121 291.881C604.619 291.881 604.171 291.987 603.778 292.2C603.39 292.409 603.082 292.7 602.855 293.074C602.628 293.443 602.514 293.865 602.514 294.338V301H600.39ZM608.066 301V290.091H610.19V301H608.066ZM609.139 288.408C608.769 288.408 608.452 288.285 608.187 288.038C607.927 287.787 607.796 287.489 607.796 287.143C607.796 286.793 607.927 286.495 608.187 286.249C608.452 285.998 608.769 285.872 609.139 285.872C609.508 285.872 609.823 285.998 610.083 286.249C610.348 286.495 610.481 286.793 610.481 287.143C610.481 287.489 610.348 287.787 610.083 288.038C609.823 288.285 609.508 288.408 609.139 288.408Z" fill="#F7F7F7"/>
<path d="M73.3047 66.5511C73.1532 65.2064 72.5282 64.1648 71.4297 63.4261C70.3312 62.678 68.9486 62.304 67.282 62.304C66.0888 62.304 65.0566 62.4934 64.1854 62.8722C63.3142 63.2415 62.6371 63.7528 62.1541 64.4062C61.6806 65.0502 61.4439 65.7841 61.4439 66.608C61.4439 67.2992 61.6049 67.8958 61.9268 68.3977C62.2583 68.8996 62.6892 69.321 63.2195 69.6619C63.7592 69.9934 64.3369 70.2727 64.9524 70.5C65.5679 70.7178 66.1598 70.8977 66.728 71.0398L69.5689 71.7784C70.4969 72.0057 71.4486 72.3134 72.424 72.7017C73.3994 73.09 74.3037 73.6013 75.1371 74.2358C75.9704 74.8703 76.6428 75.6562 77.1541 76.5938C77.675 77.5312 77.9354 78.6534 77.9354 79.9602C77.9354 81.608 77.5092 83.071 76.657 84.3494C75.8142 85.6278 74.5878 86.6364 72.978 87.375C71.3776 88.1136 69.4411 88.483 67.1683 88.483C64.9903 88.483 63.1058 88.1373 61.5149 87.446C59.924 86.7547 58.6787 85.7746 57.7791 84.5057C56.8795 83.2273 56.3823 81.7121 56.2876 79.9602H60.6911C60.7763 81.0114 61.1172 81.8873 61.7138 82.5881C62.3198 83.2794 63.0916 83.7955 64.0291 84.1364C64.9761 84.4678 66.013 84.6335 67.1399 84.6335C68.3804 84.6335 69.4837 84.4394 70.4496 84.0511C71.425 83.6534 72.192 83.1042 72.7507 82.4034C73.3094 81.6932 73.5888 80.8646 73.5888 79.9176C73.5888 79.0559 73.3426 78.3504 72.8501 77.8011C72.3672 77.2519 71.709 76.7973 70.8757 76.4375C70.0518 76.0777 69.1191 75.7604 68.0774 75.4858L64.6399 74.5483C62.3104 73.9138 60.4638 72.9811 59.1001 71.75C57.746 70.5189 57.0689 68.8902 57.0689 66.8636C57.0689 65.1875 57.5234 63.7244 58.4325 62.4744C59.3416 61.2244 60.5727 60.2538 62.1257 59.5625C63.6787 58.8617 65.4306 58.5114 67.3814 58.5114C69.3511 58.5114 71.0888 58.857 72.5945 59.5483C74.1096 60.2396 75.3028 61.1913 76.174 62.4034C77.0452 63.6061 77.4998 64.9886 77.5376 66.5511H73.3047ZM93.0241 66.1818V69.5909H81.1065V66.1818H93.0241ZM84.3026 60.9545H88.5497V81.5938C88.5497 82.4176 88.6728 83.0379 88.919 83.4545C89.1652 83.8617 89.4825 84.1411 89.8707 84.2926C90.2685 84.4347 90.6993 84.5057 91.1634 84.5057C91.5043 84.5057 91.8026 84.482 92.0582 84.4347C92.3139 84.3873 92.5128 84.3494 92.6548 84.321L93.4219 87.8295C93.1757 87.9242 92.8253 88.0189 92.3707 88.1136C91.9162 88.2178 91.348 88.2746 90.6662 88.2841C89.5488 88.303 88.5071 88.1042 87.5412 87.6875C86.5753 87.2708 85.794 86.6269 85.1974 85.7557C84.6009 84.8845 84.3026 83.7907 84.3026 82.4744V60.9545ZM104.072 88.483C102.689 88.483 101.439 88.2273 100.322 87.7159C99.2043 87.1951 98.3189 86.4422 97.6655 85.4574C97.0215 84.4725 96.6996 83.2652 96.6996 81.8352C96.6996 80.6042 96.9363 79.5909 97.4098 78.7955C97.8833 78 98.5225 77.3703 99.3274 76.9062C100.132 76.4422 101.032 76.0919 102.026 75.8551C103.021 75.6184 104.034 75.4384 105.066 75.3153C106.373 75.1638 107.433 75.0407 108.248 74.946C109.062 74.8419 109.654 74.6761 110.023 74.4489C110.393 74.2216 110.577 73.8523 110.577 73.3409V73.2415C110.577 72.0009 110.227 71.0398 109.526 70.358C108.835 69.6761 107.803 69.3352 106.43 69.3352C105 69.3352 103.873 69.6525 103.049 70.2869C102.235 70.9119 101.671 71.608 101.359 72.375L97.3672 71.4659C97.8407 70.1402 98.532 69.0701 99.4411 68.2557C100.36 67.4318 101.415 66.8352 102.609 66.4659C103.802 66.0871 105.057 65.8977 106.373 65.8977C107.244 65.8977 108.167 66.0019 109.143 66.2102C110.128 66.4091 111.046 66.7784 111.898 67.3182C112.76 67.858 113.466 68.6297 114.015 69.6335C114.564 70.6278 114.839 71.9205 114.839 73.5114V88H110.691V85.017H110.521C110.246 85.5663 109.834 86.1061 109.285 86.6364C108.736 87.1667 108.03 87.607 107.168 87.9574C106.307 88.3078 105.274 88.483 104.072 88.483ZM104.995 85.0739C106.169 85.0739 107.173 84.8419 108.006 84.3778C108.849 83.9138 109.488 83.3078 109.924 82.5597C110.369 81.8021 110.592 80.9924 110.592 80.1307V77.3182C110.44 77.4697 110.147 77.6117 109.711 77.7443C109.285 77.8674 108.797 77.9763 108.248 78.071C107.699 78.1562 107.164 78.2367 106.643 78.3125C106.122 78.3788 105.686 78.4356 105.336 78.483C104.512 78.5871 103.759 78.7623 103.077 79.0085C102.405 79.2547 101.865 79.6098 101.458 80.0739C101.06 80.5284 100.862 81.1345 100.862 81.892C100.862 82.9432 101.25 83.7386 102.026 84.2784C102.803 84.8087 103.792 85.0739 104.995 85.0739ZM130.68 66.1818V69.5909H118.763V66.1818H130.68ZM121.959 60.9545H126.206V81.5938C126.206 82.4176 126.329 83.0379 126.575 83.4545C126.821 83.8617 127.139 84.1411 127.527 84.2926C127.925 84.4347 128.356 84.5057 128.82 84.5057C129.161 84.5057 129.459 84.482 129.714 84.4347C129.97 84.3873 130.169 84.3494 130.311 84.321L131.078 87.8295C130.832 87.9242 130.482 88.0189 130.027 88.1136C129.572 88.2178 129.004 88.2746 128.322 88.2841C127.205 88.303 126.163 88.1042 125.197 87.6875C124.232 87.2708 123.45 86.6269 122.854 85.7557C122.257 84.8845 121.959 83.7907 121.959 82.4744V60.9545ZM149.2 78.9517V66.1818H153.461V88H149.285V84.2216H149.058C148.556 85.3864 147.751 86.357 146.643 87.1335C145.544 87.9006 144.176 88.2841 142.538 88.2841C141.136 88.2841 139.896 87.9763 138.816 87.3608C137.746 86.7358 136.903 85.8125 136.288 84.5909C135.682 83.3693 135.379 81.8589 135.379 80.0597V66.1818H139.626V79.5483C139.626 81.035 140.038 82.2187 140.862 83.0994C141.685 83.9801 142.755 84.4205 144.072 84.4205C144.867 84.4205 145.658 84.2216 146.444 83.8239C147.239 83.4261 147.897 82.8248 148.418 82.0199C148.949 81.215 149.209 80.1922 149.2 78.9517ZM175.517 71.5085L171.668 72.1903C171.507 71.6979 171.251 71.2292 170.901 70.7841C170.56 70.339 170.096 69.9744 169.509 69.6903C168.921 69.4062 168.188 69.2642 167.307 69.2642C166.104 69.2642 165.1 69.5341 164.295 70.0739C163.491 70.6042 163.088 71.2907 163.088 72.1335C163.088 72.8627 163.358 73.4498 163.898 73.8949C164.438 74.34 165.309 74.7045 166.511 74.9886L169.977 75.7841C171.985 76.2481 173.481 76.9631 174.466 77.929C175.451 78.8949 175.943 80.1496 175.943 81.6932C175.943 83 175.564 84.1648 174.807 85.1875C174.059 86.2008 173.012 86.9962 171.668 87.5739C170.332 88.1515 168.784 88.4403 167.023 88.4403C164.58 88.4403 162.586 87.9195 161.043 86.8778C159.499 85.8267 158.552 84.3352 158.202 82.4034L162.307 81.7784C162.563 82.8485 163.088 83.6581 163.884 84.2074C164.679 84.7472 165.716 85.017 166.994 85.017C168.386 85.017 169.499 84.7282 170.332 84.1506C171.166 83.5634 171.582 82.8485 171.582 82.0057C171.582 81.3239 171.327 80.7509 170.815 80.2869C170.313 79.8229 169.542 79.4725 168.5 79.2358L164.807 78.4261C162.771 77.9621 161.265 77.2235 160.29 76.2102C159.324 75.197 158.841 73.9138 158.841 72.3608C158.841 71.0729 159.201 69.946 159.92 68.9801C160.64 68.0142 161.634 67.2614 162.903 66.7216C164.172 66.1723 165.626 65.8977 167.264 65.8977C169.622 65.8977 171.478 66.4091 172.832 67.4318C174.187 68.4451 175.081 69.804 175.517 71.5085Z" fill="#F7F7F7"/>
<path d="M346.13 104V101.614L353.513 93.9645C354.301 93.1335 354.951 92.4055 355.462 91.7805C355.981 91.1484 356.368 90.5483 356.624 89.9801C356.879 89.4119 357.007 88.8082 357.007 88.169C357.007 87.4446 356.837 86.8196 356.496 86.294C356.155 85.7614 355.69 85.353 355.1 85.0689C354.511 84.7777 353.847 84.6321 353.108 84.6321C352.327 84.6321 351.645 84.7919 351.062 85.1115C350.48 85.4311 350.033 85.8821 349.72 86.4645C349.408 87.0469 349.251 87.7287 349.251 88.5099H346.109C346.109 87.1818 346.414 86.0206 347.025 85.0263C347.636 84.032 348.474 83.2614 349.539 82.7145C350.604 82.1605 351.815 81.8835 353.172 81.8835C354.543 81.8835 355.75 82.157 356.794 82.7038C357.845 83.2436 358.665 83.9822 359.255 84.9197C359.844 85.8501 360.139 86.9013 360.139 88.0732C360.139 88.8828 359.987 89.6747 359.681 90.4489C359.383 91.223 358.861 92.0859 358.115 93.0376C357.369 93.9822 356.332 95.1293 355.004 96.4787L350.668 101.017V101.177H360.491V104H346.13ZM364.528 104V101.614L371.911 93.9645C372.7 93.1335 373.349 92.4055 373.861 91.7805C374.379 91.1484 374.766 90.5483 375.022 89.9801C375.278 89.4119 375.406 88.8082 375.406 88.169C375.406 87.4446 375.235 86.8196 374.894 86.294C374.553 85.7614 374.088 85.353 373.499 85.0689C372.909 84.7777 372.245 84.6321 371.506 84.6321C370.725 84.6321 370.043 84.7919 369.461 85.1115C368.879 85.4311 368.431 85.8821 368.119 86.4645C367.806 87.0469 367.65 87.7287 367.65 88.5099H364.507C364.507 87.1818 364.813 86.0206 365.423 85.0263C366.034 84.032 366.872 83.2614 367.938 82.7145C369.003 82.1605 370.214 81.8835 371.57 81.8835C372.941 81.8835 374.148 82.157 375.192 82.7038C376.244 83.2436 377.064 83.9822 377.653 84.9197C378.243 85.8501 378.538 86.9013 378.538 88.0732C378.538 88.8828 378.385 89.6747 378.08 90.4489C377.781 91.223 377.259 92.0859 376.513 93.0376C375.768 93.9822 374.731 95.1293 373.403 96.4787L369.067 101.017V101.177H378.889V104H364.528ZM385.068 104.202C384.486 104.202 383.985 103.996 383.566 103.585C383.147 103.165 382.938 102.661 382.938 102.072C382.938 101.489 383.147 100.992 383.566 100.58C383.985 100.161 384.486 99.9517 385.068 99.9517C385.651 99.9517 386.151 100.161 386.57 100.58C386.989 100.992 387.199 101.489 387.199 102.072C387.199 102.462 387.099 102.821 386.901 103.148C386.709 103.467 386.453 103.723 386.134 103.915C385.814 104.107 385.459 104.202 385.068 104.202ZM391.423 104V101.614L398.806 93.9645C399.594 93.1335 400.244 92.4055 400.755 91.7805C401.274 91.1484 401.661 90.5483 401.917 89.9801C402.172 89.4119 402.3 88.8082 402.3 88.169C402.3 87.4446 402.13 86.8196 401.789 86.294C401.448 85.7614 400.983 85.353 400.393 85.0689C399.804 84.7777 399.14 84.6321 398.401 84.6321C397.62 84.6321 396.938 84.7919 396.355 85.1115C395.773 85.4311 395.326 85.8821 395.013 86.4645C394.701 87.0469 394.544 87.7287 394.544 88.5099H391.402C391.402 87.1818 391.707 86.0206 392.318 85.0263C392.929 84.032 393.767 83.2614 394.832 82.7145C395.897 82.1605 397.108 81.8835 398.465 81.8835C399.836 81.8835 401.043 82.157 402.087 82.7038C403.138 83.2436 403.958 83.9822 404.548 84.9197C405.137 85.8501 405.432 86.9013 405.432 88.0732C405.432 88.8828 405.279 89.6747 404.974 90.4489C404.676 91.223 404.154 92.0859 403.408 93.0376C402.662 93.9822 401.625 95.1293 400.297 96.4787L395.961 101.017V101.177H405.784V104H391.423ZM424.494 106.727V79.4545H426.241V106.727H424.494ZM429.959 87.9134C429.845 86.9048 429.377 86.1236 428.553 85.5696C427.729 85.0085 426.692 84.728 425.442 84.728C424.547 84.728 423.773 84.87 423.119 85.1541C422.466 85.4311 421.958 85.8146 421.596 86.3047C421.241 86.7876 421.063 87.3381 421.063 87.956C421.063 88.4744 421.184 88.9219 421.426 89.2983C421.674 89.6747 421.997 89.9908 422.395 90.2464C422.8 90.495 423.233 90.7045 423.695 90.875C424.156 91.0384 424.6 91.1733 425.026 91.2798L427.157 91.8338C427.853 92.0043 428.567 92.2351 429.298 92.5263C430.03 92.8175 430.708 93.201 431.333 93.6768C431.958 94.1527 432.463 94.7422 432.846 95.4453C433.237 96.1484 433.432 96.9901 433.432 97.9702C433.432 99.206 433.112 100.303 432.473 101.262C431.841 102.221 430.921 102.977 429.714 103.531C428.514 104.085 427.061 104.362 425.357 104.362C423.723 104.362 422.31 104.103 421.117 103.585C419.923 103.066 418.99 102.331 418.315 101.379C417.64 100.42 417.267 99.2841 417.196 97.9702H420.499C420.563 98.7585 420.818 99.4155 421.266 99.9411C421.72 100.46 422.299 100.847 423.002 101.102C423.713 101.351 424.49 101.475 425.335 101.475C426.266 101.475 427.093 101.33 427.818 101.038C428.549 100.74 429.124 100.328 429.544 99.8026C429.963 99.2699 430.172 98.6484 430.172 97.9382C430.172 97.2919 429.987 96.7628 429.618 96.3509C429.256 95.9389 428.762 95.598 428.137 95.3281C427.519 95.0582 426.82 94.8203 426.039 94.6143L423.46 93.9112C421.713 93.4354 420.328 92.7358 419.306 91.8125C418.29 90.8892 417.782 89.6676 417.782 88.1477C417.782 86.8906 418.123 85.7933 418.805 84.8558C419.487 83.9183 420.41 83.1903 421.575 82.6719C422.74 82.1463 424.053 81.8835 425.517 81.8835C426.994 81.8835 428.297 82.1428 429.426 82.6612C430.563 83.1797 431.458 83.8935 432.111 84.8026C432.764 85.7045 433.105 86.7415 433.134 87.9134H429.959Z" fill="#F7F7F7"/>
<path d="M6 164.5H33.3058C44.4088 164.5 55.1532 168.431 63.6351 175.595L95.9449 202.888C115.44 219.356 144.513 217.259 161.442 198.164L190.07 165.875C205.538 148.428 231.458 144.959 250.97 157.725L278.782 175.921C297.519 188.18 322.302 185.519 338.009 169.562L369.546 137.525C388.879 117.884 420.885 119.017 438.782 139.975L440.075 141.489C460.639 165.571 498.651 162.838 515.558 136.061L546.778 86.6161C563.436 60.2341 600.704 57.1078 621.524 80.346L651.161 113.424C655.195 117.927 660.955 120.5 667 120.5V120.5" stroke="url(#paint2_linear_240_606)" stroke-width="6"/>
<g filter="url(#filter0_d_240_606)">
<circle cx="389.5" cy="126.5" r="15.5" fill="#1B1B1B"/>
<circle cx="389.5" cy="126.5" r="14.5" stroke="#71D0C9" stroke-width="2"/>
</g>
<defs>
<filter id="filter0_d_240_606" x="340" y="77" width="99" height="99" filterUnits="userSpaceOnUse" color-interpolation-filters="sRGB">
<feFlood flood-opacity="0" result="BackgroundImageFix"/>
<feColorMatrix in="SourceAlpha" type="matrix" values="0 0 0 0 0 0 0 0 0 0 0 0 0 0 0 0 0 0 127 0" result="hardAlpha"/>
<feOffset/>
<feGaussianBlur stdDeviation="17"/>
<feComposite in2="hardAlpha" operator="out"/>
<feColorMatrix type="matrix" values="0 0 0 0 1 0 0 0 0 1 0 0 0 0 1 0 0 0 0.15 0"/>
<feBlend mode="normal" in2="BackgroundImageFix" result="effect1_dropShadow_240_606"/>
<feBlend mode="normal" in="SourceGraphic" in2="effect1_dropShadow_240_606" result="shape"/>
</filter>
<linearGradient id="paint0_linear_240_606" x1="194" y1="414" x2="366" y2="414" gradientUnits="userSpaceOnUse">
<stop stop-color="#3FE8AB"/>
<stop offset="1" stop-color="#78CDCD"/>
</linearGradient>
<linearGradient id="paint1_linear_240_606" x1="264.541" y1="674.695" x2="636.427" y2="674.695" gradientUnits="userSpaceOnUse">
<stop stop-color="#3FE8AB"/>
<stop offset="1" stop-color="#78CDCD"/>
</linearGradient>
<linearGradient id="paint2_linear_240_606" x1="6" y1="229.794" x2="648" y2="229.794" gradientUnits="userSpaceOnUse">
<stop stop-color="#3FE8AB"/>
<stop offset="1" stop-color="#78CDCD"/>
</linearGradient>
</defs>
</svg>
